<mxfile host="app.diagrams.net" modified="2020-09-11T09:30:25.563Z" agent="5.0 (Windows NT 6.1; Win64; x64) AppleWebKit/537.36 (KHTML, like Gecko) Chrome/85.0.4183.83 Safari/537.36 Edg/85.0.564.44" etag="nCdmTIn9TICy_kO9H0Sy" version="13.6.9" type="github">
  <diagram id="c7K4ZUN4sjzqHq5NZWMb" name="Page-1">
    <mxGraphModel dx="1422" dy="762" grid="0" gridSize="10" guides="1" tooltips="1" connect="1" arrows="1" fold="1" page="1" pageScale="1" pageWidth="1227" pageHeight="2000" math="0" shadow="0">
      <root>
        <mxCell id="0" />
        <mxCell id="1" parent="0" />
        <mxCell id="KGYHmEIzNs8f1rvYr3dA-50" value="myNum" style="text;html=1;resizable=0;autosize=1;align=center;verticalAlign=middle;points=[];fillColor=none;strokeColor=none;rounded=0;" parent="1" vertex="1">
          <mxGeometry x="62" y="116" width="51" height="18" as="geometry" />
        </mxCell>
        <mxCell id="KGYHmEIzNs8f1rvYr3dA-51" value="myStr" style="text;html=1;resizable=0;autosize=1;align=center;verticalAlign=middle;points=[];fillColor=none;strokeColor=none;rounded=0;" parent="1" vertex="1">
          <mxGeometry x="67" y="147" width="41" height="18" as="geometry" />
        </mxCell>
        <mxCell id="KGYHmEIzNs8f1rvYr3dA-52" value="obj" style="text;html=1;resizable=0;autosize=1;align=center;verticalAlign=middle;points=[];fillColor=none;strokeColor=none;rounded=0;" parent="1" vertex="1">
          <mxGeometry x="74.5" y="176" width="26" height="18" as="geometry" />
        </mxCell>
        <mxCell id="KGYHmEIzNs8f1rvYr3dA-53" value="变量名" style="text;html=1;resizable=0;autosize=1;align=center;verticalAlign=middle;points=[];fillColor=none;strokeColor=none;rounded=0;" parent="1" vertex="1">
          <mxGeometry x="64.5" y="88" width="46" height="18" as="geometry" />
        </mxCell>
        <mxCell id="KGYHmEIzNs8f1rvYr3dA-1" value="栈内存" style="shape=table;html=1;whiteSpace=wrap;startSize=30;container=1;collapsible=0;childLayout=tableLayout;fixedRows=1;rowLines=0;fontStyle=1;align=center;" parent="1" vertex="1">
          <mxGeometry x="171.5" y="50" width="283" height="230" as="geometry" />
        </mxCell>
        <mxCell id="KGYHmEIzNs8f1rvYr3dA-2" value="" style="shape=partialRectangle;html=1;whiteSpace=wrap;collapsible=0;dropTarget=0;pointerEvents=0;fillColor=none;top=0;left=0;bottom=1;right=0;points=[[0,0.5],[1,0.5]];portConstraint=eastwest;" parent="KGYHmEIzNs8f1rvYr3dA-1" vertex="1">
          <mxGeometry y="30" width="283" height="30" as="geometry" />
        </mxCell>
        <mxCell id="KGYHmEIzNs8f1rvYr3dA-3" value="地址" style="shape=partialRectangle;html=1;whiteSpace=wrap;connectable=0;fillColor=none;top=0;left=0;bottom=0;right=0;overflow=hidden;" parent="KGYHmEIzNs8f1rvYr3dA-2" vertex="1">
          <mxGeometry width="142" height="30" as="geometry" />
        </mxCell>
        <mxCell id="KGYHmEIzNs8f1rvYr3dA-4" value="值" style="shape=partialRectangle;html=1;whiteSpace=wrap;connectable=0;fillColor=none;top=0;left=0;bottom=0;right=0;align=center;spacingLeft=6;overflow=hidden;" parent="KGYHmEIzNs8f1rvYr3dA-2" vertex="1">
          <mxGeometry x="142" width="141" height="30" as="geometry" />
        </mxCell>
        <mxCell id="KGYHmEIzNs8f1rvYr3dA-5" value="" style="shape=partialRectangle;html=1;whiteSpace=wrap;collapsible=0;dropTarget=0;pointerEvents=0;fillColor=none;top=0;left=0;bottom=0;right=0;points=[[0,0.5],[1,0.5]];portConstraint=eastwest;" parent="KGYHmEIzNs8f1rvYr3dA-1" vertex="1">
          <mxGeometry y="60" width="283" height="30" as="geometry" />
        </mxCell>
        <mxCell id="KGYHmEIzNs8f1rvYr3dA-6" value="&lt;table border=&quot;0&quot; cellpadding=&quot;0&quot; cellspacing=&quot;0&quot; width=&quot;103&quot; style=&quot;border-collapse: collapse ; width: 77pt&quot;&gt;&lt;tbody&gt;&lt;tr style=&quot;height: 14.25pt&quot;&gt;  &lt;td height=&quot;19&quot; width=&quot;103&quot; style=&quot;height: 14.25pt ; width: 77pt&quot;&gt;0x00000001&lt;/td&gt;&lt;/tr&gt;&lt;/tbody&gt;&lt;/table&gt;" style="shape=partialRectangle;html=1;whiteSpace=wrap;connectable=0;fillColor=none;top=0;left=0;bottom=0;right=0;overflow=hidden;" parent="KGYHmEIzNs8f1rvYr3dA-5" vertex="1">
          <mxGeometry width="142" height="30" as="geometry" />
        </mxCell>
        <mxCell id="KGYHmEIzNs8f1rvYr3dA-7" value="1" style="shape=partialRectangle;html=1;whiteSpace=wrap;connectable=0;fillColor=none;top=0;left=0;bottom=0;right=0;align=center;spacingLeft=6;overflow=hidden;" parent="KGYHmEIzNs8f1rvYr3dA-5" vertex="1">
          <mxGeometry x="142" width="141" height="30" as="geometry" />
        </mxCell>
        <mxCell id="KGYHmEIzNs8f1rvYr3dA-8" value="" style="shape=partialRectangle;html=1;whiteSpace=wrap;collapsible=0;dropTarget=0;pointerEvents=0;fillColor=none;top=0;left=0;bottom=0;right=0;points=[[0,0.5],[1,0.5]];portConstraint=eastwest;" parent="KGYHmEIzNs8f1rvYr3dA-1" vertex="1">
          <mxGeometry y="90" width="283" height="30" as="geometry" />
        </mxCell>
        <mxCell id="KGYHmEIzNs8f1rvYr3dA-9" value="0x00000002" style="shape=partialRectangle;html=1;whiteSpace=wrap;connectable=0;fillColor=none;top=0;left=0;bottom=0;right=0;overflow=hidden;" parent="KGYHmEIzNs8f1rvYr3dA-8" vertex="1">
          <mxGeometry width="142" height="30" as="geometry" />
        </mxCell>
        <mxCell id="KGYHmEIzNs8f1rvYr3dA-10" value="&quot;a&quot;" style="shape=partialRectangle;html=1;whiteSpace=wrap;connectable=0;fillColor=none;top=0;left=0;bottom=0;right=0;align=center;spacingLeft=6;overflow=hidden;" parent="KGYHmEIzNs8f1rvYr3dA-8" vertex="1">
          <mxGeometry x="142" width="141" height="30" as="geometry" />
        </mxCell>
        <mxCell id="KGYHmEIzNs8f1rvYr3dA-26" style="shape=partialRectangle;html=1;whiteSpace=wrap;collapsible=0;dropTarget=0;pointerEvents=0;fillColor=none;top=0;left=0;bottom=0;right=0;points=[[0,0.5],[1,0.5]];portConstraint=eastwest;" parent="KGYHmEIzNs8f1rvYr3dA-1" vertex="1">
          <mxGeometry y="120" width="283" height="30" as="geometry" />
        </mxCell>
        <mxCell id="KGYHmEIzNs8f1rvYr3dA-27" value="&lt;span&gt;0x00000003&lt;/span&gt;" style="shape=partialRectangle;html=1;whiteSpace=wrap;connectable=0;fillColor=none;top=0;left=0;bottom=0;right=0;overflow=hidden;" parent="KGYHmEIzNs8f1rvYr3dA-26" vertex="1">
          <mxGeometry width="142" height="30" as="geometry" />
        </mxCell>
        <mxCell id="KGYHmEIzNs8f1rvYr3dA-28" value="&lt;span&gt;0x00001001&lt;/span&gt;" style="shape=partialRectangle;html=1;whiteSpace=wrap;connectable=0;fillColor=none;top=0;left=0;bottom=0;right=0;align=center;spacingLeft=6;overflow=hidden;" parent="KGYHmEIzNs8f1rvYr3dA-26" vertex="1">
          <mxGeometry x="142" width="141" height="30" as="geometry" />
        </mxCell>
        <mxCell id="KGYHmEIzNs8f1rvYr3dA-11" value="堆内存" style="shape=table;html=1;whiteSpace=wrap;startSize=30;container=1;collapsible=0;childLayout=tableLayout;fixedRows=1;rowLines=0;fontStyle=1;align=center;" parent="1" vertex="1">
          <mxGeometry x="547.5" y="50" width="283" height="230" as="geometry" />
        </mxCell>
        <mxCell id="KGYHmEIzNs8f1rvYr3dA-12" value="" style="shape=partialRectangle;html=1;whiteSpace=wrap;collapsible=0;dropTarget=0;pointerEvents=0;fillColor=none;top=0;left=0;bottom=1;right=0;points=[[0,0.5],[1,0.5]];portConstraint=eastwest;" parent="KGYHmEIzNs8f1rvYr3dA-11" vertex="1">
          <mxGeometry y="30" width="283" height="30" as="geometry" />
        </mxCell>
        <mxCell id="KGYHmEIzNs8f1rvYr3dA-13" value="地址" style="shape=partialRectangle;html=1;whiteSpace=wrap;connectable=0;fillColor=none;top=0;left=0;bottom=0;right=0;overflow=hidden;" parent="KGYHmEIzNs8f1rvYr3dA-12" vertex="1">
          <mxGeometry width="142" height="30" as="geometry" />
        </mxCell>
        <mxCell id="KGYHmEIzNs8f1rvYr3dA-14" value="值" style="shape=partialRectangle;html=1;whiteSpace=wrap;connectable=0;fillColor=none;top=0;left=0;bottom=0;right=0;align=center;spacingLeft=6;overflow=hidden;" parent="KGYHmEIzNs8f1rvYr3dA-12" vertex="1">
          <mxGeometry x="142" width="141" height="30" as="geometry" />
        </mxCell>
        <mxCell id="KGYHmEIzNs8f1rvYr3dA-15" value="" style="shape=partialRectangle;html=1;whiteSpace=wrap;collapsible=0;dropTarget=0;pointerEvents=0;fillColor=none;top=0;left=0;bottom=0;right=0;points=[[0,0.5],[1,0.5]];portConstraint=eastwest;" parent="KGYHmEIzNs8f1rvYr3dA-11" vertex="1">
          <mxGeometry y="60" width="283" height="30" as="geometry" />
        </mxCell>
        <mxCell id="KGYHmEIzNs8f1rvYr3dA-16" value="0x00001001" style="shape=partialRectangle;html=1;whiteSpace=wrap;connectable=0;fillColor=none;top=0;left=0;bottom=0;right=0;overflow=hidden;" parent="KGYHmEIzNs8f1rvYr3dA-15" vertex="1">
          <mxGeometry width="142" height="30" as="geometry" />
        </mxCell>
        <mxCell id="KGYHmEIzNs8f1rvYr3dA-17" value="{ name: &quot;Nicholas&quot; }" style="shape=partialRectangle;html=1;whiteSpace=wrap;connectable=0;fillColor=none;top=0;left=0;bottom=0;right=0;align=center;spacingLeft=6;overflow=hidden;" parent="KGYHmEIzNs8f1rvYr3dA-15" vertex="1">
          <mxGeometry x="142" width="141" height="30" as="geometry" />
        </mxCell>
        <mxCell id="KGYHmEIzNs8f1rvYr3dA-18" value="" style="shape=partialRectangle;html=1;whiteSpace=wrap;collapsible=0;dropTarget=0;pointerEvents=0;fillColor=none;top=0;left=0;bottom=0;right=0;points=[[0,0.5],[1,0.5]];portConstraint=eastwest;" parent="KGYHmEIzNs8f1rvYr3dA-11" vertex="1">
          <mxGeometry y="90" width="283" height="30" as="geometry" />
        </mxCell>
        <mxCell id="KGYHmEIzNs8f1rvYr3dA-19" value="" style="shape=partialRectangle;html=1;whiteSpace=wrap;connectable=0;fillColor=none;top=0;left=0;bottom=0;right=0;overflow=hidden;" parent="KGYHmEIzNs8f1rvYr3dA-18" vertex="1">
          <mxGeometry width="142" height="30" as="geometry" />
        </mxCell>
        <mxCell id="KGYHmEIzNs8f1rvYr3dA-20" value="" style="shape=partialRectangle;html=1;whiteSpace=wrap;connectable=0;fillColor=none;top=0;left=0;bottom=0;right=0;align=center;spacingLeft=6;overflow=hidden;" parent="KGYHmEIzNs8f1rvYr3dA-18" vertex="1">
          <mxGeometry x="142" width="141" height="30" as="geometry" />
        </mxCell>
        <mxCell id="KGYHmEIzNs8f1rvYr3dA-21" style="shape=partialRectangle;html=1;whiteSpace=wrap;collapsible=0;dropTarget=0;pointerEvents=0;fillColor=none;top=0;left=0;bottom=0;right=0;points=[[0,0.5],[1,0.5]];portConstraint=eastwest;" parent="KGYHmEIzNs8f1rvYr3dA-11" vertex="1">
          <mxGeometry y="120" width="283" height="30" as="geometry" />
        </mxCell>
        <mxCell id="KGYHmEIzNs8f1rvYr3dA-22" value="" style="shape=partialRectangle;html=1;whiteSpace=wrap;connectable=0;fillColor=none;top=0;left=0;bottom=0;right=0;overflow=hidden;" parent="KGYHmEIzNs8f1rvYr3dA-21" vertex="1">
          <mxGeometry width="142" height="30" as="geometry" />
        </mxCell>
        <mxCell id="KGYHmEIzNs8f1rvYr3dA-23" value="" style="shape=partialRectangle;html=1;whiteSpace=wrap;connectable=0;fillColor=none;top=0;left=0;bottom=0;right=0;align=center;spacingLeft=6;overflow=hidden;" parent="KGYHmEIzNs8f1rvYr3dA-21" vertex="1">
          <mxGeometry x="142" width="141" height="30" as="geometry" />
        </mxCell>
        <mxCell id="KGYHmEIzNs8f1rvYr3dA-54" value="" style="endArrow=classic;html=1;entryX=0;entryY=0.5;entryDx=0;entryDy=0;" parent="1" source="KGYHmEIzNs8f1rvYr3dA-50" target="KGYHmEIzNs8f1rvYr3dA-5" edge="1">
          <mxGeometry width="50" height="50" relative="1" as="geometry">
            <mxPoint x="123" y="149" as="sourcePoint" />
            <mxPoint x="132" y="255" as="targetPoint" />
          </mxGeometry>
        </mxCell>
        <mxCell id="KGYHmEIzNs8f1rvYr3dA-55" value="" style="endArrow=classic;html=1;entryX=0;entryY=0.5;entryDx=0;entryDy=0;" parent="1" edge="1">
          <mxGeometry width="50" height="50" relative="1" as="geometry">
            <mxPoint x="113" y="155" as="sourcePoint" />
            <mxPoint x="171.5" y="155" as="targetPoint" />
          </mxGeometry>
        </mxCell>
        <mxCell id="KGYHmEIzNs8f1rvYr3dA-56" value="" style="endArrow=classic;html=1;entryX=0;entryY=0.5;entryDx=0;entryDy=0;" parent="1" edge="1">
          <mxGeometry width="50" height="50" relative="1" as="geometry">
            <mxPoint x="111" y="186" as="sourcePoint" />
            <mxPoint x="169.5" y="186" as="targetPoint" />
          </mxGeometry>
        </mxCell>
        <mxCell id="KGYHmEIzNs8f1rvYr3dA-57" value="" style="curved=1;endArrow=classic;html=1;exitX=1;exitY=0.5;exitDx=0;exitDy=0;entryX=0;entryY=0.5;entryDx=0;entryDy=0;" parent="1" source="KGYHmEIzNs8f1rvYr3dA-26" target="KGYHmEIzNs8f1rvYr3dA-15" edge="1">
          <mxGeometry width="50" height="50" relative="1" as="geometry">
            <mxPoint x="640" y="376" as="sourcePoint" />
            <mxPoint x="690" y="326" as="targetPoint" />
            <Array as="points">
              <mxPoint x="506" y="172" />
              <mxPoint x="496" y="141" />
            </Array>
          </mxGeometry>
        </mxCell>
        <mxCell id="KGYHmEIzNs8f1rvYr3dA-132" value="myNum" style="text;html=1;resizable=0;autosize=1;align=center;verticalAlign=middle;points=[];fillColor=none;strokeColor=none;rounded=0;" parent="1" vertex="1">
          <mxGeometry x="12" y="457" width="51" height="18" as="geometry" />
        </mxCell>
        <mxCell id="KGYHmEIzNs8f1rvYr3dA-135" value="变量名" style="text;html=1;resizable=0;autosize=1;align=center;verticalAlign=middle;points=[];fillColor=none;strokeColor=none;rounded=0;" parent="1" vertex="1">
          <mxGeometry x="14.5" y="429" width="46" height="18" as="geometry" />
        </mxCell>
        <mxCell id="KGYHmEIzNs8f1rvYr3dA-149" value="" style="endArrow=classic;html=1;entryX=0;entryY=0.5;entryDx=0;entryDy=0;" parent="1" source="KGYHmEIzNs8f1rvYr3dA-132" target="KGYHmEIzNs8f1rvYr3dA-140" edge="1">
          <mxGeometry width="50" height="50" relative="1" as="geometry">
            <mxPoint x="73" y="490" as="sourcePoint" />
            <mxPoint x="82" y="596" as="targetPoint" />
          </mxGeometry>
        </mxCell>
        <mxCell id="KGYHmEIzNs8f1rvYr3dA-153" value="myNum" style="text;html=1;resizable=0;autosize=1;align=center;verticalAlign=middle;points=[];fillColor=none;strokeColor=none;rounded=0;" parent="1" vertex="1">
          <mxGeometry x="12" y="688" width="51" height="18" as="geometry" />
        </mxCell>
        <mxCell id="KGYHmEIzNs8f1rvYr3dA-154" value="变量名" style="text;html=1;resizable=0;autosize=1;align=center;verticalAlign=middle;points=[];fillColor=none;strokeColor=none;rounded=0;" parent="1" vertex="1">
          <mxGeometry x="14.5" y="632" width="46" height="18" as="geometry" />
        </mxCell>
        <mxCell id="KGYHmEIzNs8f1rvYr3dA-155" value="" style="endArrow=classic;html=1;entryX=0;entryY=0.5;entryDx=0;entryDy=0;" parent="1" source="KGYHmEIzNs8f1rvYr3dA-153" edge="1">
          <mxGeometry width="50" height="50" relative="1" as="geometry">
            <mxPoint x="73" y="721" as="sourcePoint" />
            <mxPoint x="121.5" y="697" as="targetPoint" />
          </mxGeometry>
        </mxCell>
        <mxCell id="KGYHmEIzNs8f1rvYr3dA-172" value="obj" style="text;html=1;resizable=0;autosize=1;align=center;verticalAlign=middle;points=[];fillColor=none;strokeColor=none;rounded=0;" parent="1" vertex="1">
          <mxGeometry x="478.75" y="456" width="26" height="18" as="geometry" />
        </mxCell>
        <mxCell id="KGYHmEIzNs8f1rvYr3dA-173" value="变量名" style="text;html=1;resizable=0;autosize=1;align=center;verticalAlign=middle;points=[];fillColor=none;strokeColor=none;rounded=0;" parent="1" vertex="1">
          <mxGeometry x="468.25" y="428" width="46" height="18" as="geometry" />
        </mxCell>
        <mxCell id="KGYHmEIzNs8f1rvYr3dA-174" value="" style="endArrow=classic;html=1;entryX=0;entryY=0.5;entryDx=0;entryDy=0;" parent="1" source="KGYHmEIzNs8f1rvYr3dA-172" target="KGYHmEIzNs8f1rvYr3dA-179" edge="1">
          <mxGeometry width="50" height="50" relative="1" as="geometry">
            <mxPoint x="526.75" y="489" as="sourcePoint" />
            <mxPoint x="535.75" y="595" as="targetPoint" />
          </mxGeometry>
        </mxCell>
        <mxCell id="KGYHmEIzNs8f1rvYr3dA-216" value="" style="endArrow=classic;html=1;" parent="1" edge="1">
          <mxGeometry width="50" height="50" relative="1" as="geometry">
            <mxPoint x="858.25" y="466.5" as="sourcePoint" />
            <mxPoint x="915" y="466" as="targetPoint" />
          </mxGeometry>
        </mxCell>
        <mxCell id="KGYHmEIzNs8f1rvYr3dA-217" value="obj" style="text;html=1;resizable=0;autosize=1;align=center;verticalAlign=middle;points=[];fillColor=none;strokeColor=none;rounded=0;" parent="1" vertex="1">
          <mxGeometry x="476.5" y="690" width="26" height="18" as="geometry" />
        </mxCell>
        <mxCell id="KGYHmEIzNs8f1rvYr3dA-218" value="变量名" style="text;html=1;resizable=0;autosize=1;align=center;verticalAlign=middle;points=[];fillColor=none;strokeColor=none;rounded=0;" parent="1" vertex="1">
          <mxGeometry x="466" y="633" width="46" height="18" as="geometry" />
        </mxCell>
        <mxCell id="KGYHmEIzNs8f1rvYr3dA-219" value="" style="endArrow=classic;html=1;entryX=0;entryY=0.5;entryDx=0;entryDy=0;" parent="1" source="KGYHmEIzNs8f1rvYr3dA-217" edge="1">
          <mxGeometry width="50" height="50" relative="1" as="geometry">
            <mxPoint x="524.5" y="723" as="sourcePoint" />
            <mxPoint x="573" y="699" as="targetPoint" />
          </mxGeometry>
        </mxCell>
        <mxCell id="KGYHmEIzNs8f1rvYr3dA-246" value="" style="endArrow=classic;html=1;" parent="1" edge="1">
          <mxGeometry width="50" height="50" relative="1" as="geometry">
            <mxPoint x="856" y="671.5" as="sourcePoint" />
            <mxPoint x="912.75" y="671" as="targetPoint" />
          </mxGeometry>
        </mxCell>
        <mxCell id="KGYHmEIzNs8f1rvYr3dA-136" value="栈内存" style="shape=table;html=1;whiteSpace=wrap;startSize=30;container=1;collapsible=0;childLayout=tableLayout;fixedRows=1;rowLines=0;fontStyle=1;align=center;" parent="1" vertex="1">
          <mxGeometry x="121.5" y="391" width="283" height="150" as="geometry" />
        </mxCell>
        <mxCell id="KGYHmEIzNs8f1rvYr3dA-137" value="" style="shape=partialRectangle;html=1;whiteSpace=wrap;collapsible=0;dropTarget=0;pointerEvents=0;fillColor=none;top=0;left=0;bottom=1;right=0;points=[[0,0.5],[1,0.5]];portConstraint=eastwest;" parent="KGYHmEIzNs8f1rvYr3dA-136" vertex="1">
          <mxGeometry y="30" width="283" height="30" as="geometry" />
        </mxCell>
        <mxCell id="KGYHmEIzNs8f1rvYr3dA-138" value="地址" style="shape=partialRectangle;html=1;whiteSpace=wrap;connectable=0;fillColor=none;top=0;left=0;bottom=0;right=0;overflow=hidden;" parent="KGYHmEIzNs8f1rvYr3dA-137" vertex="1">
          <mxGeometry width="142" height="30" as="geometry" />
        </mxCell>
        <mxCell id="KGYHmEIzNs8f1rvYr3dA-139" value="值" style="shape=partialRectangle;html=1;whiteSpace=wrap;connectable=0;fillColor=none;top=0;left=0;bottom=0;right=0;align=center;spacingLeft=6;overflow=hidden;" parent="KGYHmEIzNs8f1rvYr3dA-137" vertex="1">
          <mxGeometry x="142" width="141" height="30" as="geometry" />
        </mxCell>
        <mxCell id="KGYHmEIzNs8f1rvYr3dA-140" value="" style="shape=partialRectangle;html=1;whiteSpace=wrap;collapsible=0;dropTarget=0;pointerEvents=0;fillColor=none;top=0;left=0;bottom=0;right=0;points=[[0,0.5],[1,0.5]];portConstraint=eastwest;" parent="KGYHmEIzNs8f1rvYr3dA-136" vertex="1">
          <mxGeometry y="60" width="283" height="30" as="geometry" />
        </mxCell>
        <mxCell id="KGYHmEIzNs8f1rvYr3dA-141" value="&lt;table border=&quot;0&quot; cellpadding=&quot;0&quot; cellspacing=&quot;0&quot; width=&quot;103&quot; style=&quot;border-collapse: collapse ; width: 77pt&quot;&gt;&lt;tbody&gt;&lt;tr style=&quot;height: 14.25pt&quot;&gt;  &lt;td height=&quot;19&quot; width=&quot;103&quot; style=&quot;height: 14.25pt ; width: 77pt&quot;&gt;0x00000001&lt;/td&gt;&lt;/tr&gt;&lt;/tbody&gt;&lt;/table&gt;" style="shape=partialRectangle;html=1;whiteSpace=wrap;connectable=0;fillColor=none;top=0;left=0;bottom=0;right=0;overflow=hidden;" parent="KGYHmEIzNs8f1rvYr3dA-140" vertex="1">
          <mxGeometry width="142" height="30" as="geometry" />
        </mxCell>
        <mxCell id="KGYHmEIzNs8f1rvYr3dA-142" value="1" style="shape=partialRectangle;html=1;whiteSpace=wrap;connectable=0;fillColor=none;top=0;left=0;bottom=0;right=0;align=center;spacingLeft=6;overflow=hidden;" parent="KGYHmEIzNs8f1rvYr3dA-140" vertex="1">
          <mxGeometry x="142" width="141" height="30" as="geometry" />
        </mxCell>
        <mxCell id="KGYHmEIzNs8f1rvYr3dA-143" value="" style="shape=partialRectangle;html=1;whiteSpace=wrap;collapsible=0;dropTarget=0;pointerEvents=0;fillColor=none;top=0;left=0;bottom=0;right=0;points=[[0,0.5],[1,0.5]];portConstraint=eastwest;" parent="KGYHmEIzNs8f1rvYr3dA-136" vertex="1">
          <mxGeometry y="90" width="283" height="30" as="geometry" />
        </mxCell>
        <mxCell id="KGYHmEIzNs8f1rvYr3dA-144" value="" style="shape=partialRectangle;html=1;whiteSpace=wrap;connectable=0;fillColor=none;top=0;left=0;bottom=0;right=0;overflow=hidden;" parent="KGYHmEIzNs8f1rvYr3dA-143" vertex="1">
          <mxGeometry width="142" height="30" as="geometry" />
        </mxCell>
        <mxCell id="KGYHmEIzNs8f1rvYr3dA-145" value="" style="shape=partialRectangle;html=1;whiteSpace=wrap;connectable=0;fillColor=none;top=0;left=0;bottom=0;right=0;align=center;spacingLeft=6;overflow=hidden;" parent="KGYHmEIzNs8f1rvYr3dA-143" vertex="1">
          <mxGeometry x="142" width="141" height="30" as="geometry" />
        </mxCell>
        <mxCell id="KGYHmEIzNs8f1rvYr3dA-146" style="shape=partialRectangle;html=1;whiteSpace=wrap;collapsible=0;dropTarget=0;pointerEvents=0;fillColor=none;top=0;left=0;bottom=0;right=0;points=[[0,0.5],[1,0.5]];portConstraint=eastwest;" parent="KGYHmEIzNs8f1rvYr3dA-136" vertex="1">
          <mxGeometry y="120" width="283" height="30" as="geometry" />
        </mxCell>
        <mxCell id="KGYHmEIzNs8f1rvYr3dA-147" value="" style="shape=partialRectangle;html=1;whiteSpace=wrap;connectable=0;fillColor=none;top=0;left=0;bottom=0;right=0;overflow=hidden;" parent="KGYHmEIzNs8f1rvYr3dA-146" vertex="1">
          <mxGeometry width="142" height="30" as="geometry" />
        </mxCell>
        <mxCell id="KGYHmEIzNs8f1rvYr3dA-148" value="" style="shape=partialRectangle;html=1;whiteSpace=wrap;connectable=0;fillColor=none;top=0;left=0;bottom=0;right=0;align=center;spacingLeft=6;overflow=hidden;" parent="KGYHmEIzNs8f1rvYr3dA-146" vertex="1">
          <mxGeometry x="142" width="141" height="30" as="geometry" />
        </mxCell>
        <mxCell id="KGYHmEIzNs8f1rvYr3dA-156" value="栈内存" style="shape=table;html=1;whiteSpace=wrap;startSize=30;container=1;collapsible=0;childLayout=tableLayout;fixedRows=1;rowLines=0;fontStyle=1;align=center;" parent="1" vertex="1">
          <mxGeometry x="121.5" y="594" width="283" height="180" as="geometry" />
        </mxCell>
        <mxCell id="KGYHmEIzNs8f1rvYr3dA-157" value="" style="shape=partialRectangle;html=1;whiteSpace=wrap;collapsible=0;dropTarget=0;pointerEvents=0;fillColor=none;top=0;left=0;bottom=1;right=0;points=[[0,0.5],[1,0.5]];portConstraint=eastwest;" parent="KGYHmEIzNs8f1rvYr3dA-156" vertex="1">
          <mxGeometry y="30" width="283" height="30" as="geometry" />
        </mxCell>
        <mxCell id="KGYHmEIzNs8f1rvYr3dA-158" value="地址" style="shape=partialRectangle;html=1;whiteSpace=wrap;connectable=0;fillColor=none;top=0;left=0;bottom=0;right=0;overflow=hidden;" parent="KGYHmEIzNs8f1rvYr3dA-157" vertex="1">
          <mxGeometry width="142" height="30" as="geometry" />
        </mxCell>
        <mxCell id="KGYHmEIzNs8f1rvYr3dA-159" value="值" style="shape=partialRectangle;html=1;whiteSpace=wrap;connectable=0;fillColor=none;top=0;left=0;bottom=0;right=0;align=center;spacingLeft=6;overflow=hidden;" parent="KGYHmEIzNs8f1rvYr3dA-157" vertex="1">
          <mxGeometry x="142" width="141" height="30" as="geometry" />
        </mxCell>
        <mxCell id="KGYHmEIzNs8f1rvYr3dA-160" value="" style="shape=partialRectangle;html=1;whiteSpace=wrap;collapsible=0;dropTarget=0;pointerEvents=0;fillColor=none;top=0;left=0;bottom=0;right=0;points=[[0,0.5],[1,0.5]];portConstraint=eastwest;" parent="KGYHmEIzNs8f1rvYr3dA-156" vertex="1">
          <mxGeometry y="60" width="283" height="30" as="geometry" />
        </mxCell>
        <mxCell id="KGYHmEIzNs8f1rvYr3dA-161" value="&lt;table border=&quot;0&quot; cellpadding=&quot;0&quot; cellspacing=&quot;0&quot; width=&quot;103&quot; style=&quot;border-collapse: collapse ; width: 77pt&quot;&gt;&lt;tbody&gt;&lt;tr style=&quot;height: 14.25pt&quot;&gt;  &lt;td height=&quot;19&quot; width=&quot;103&quot; style=&quot;height: 14.25pt ; width: 77pt&quot;&gt;0x00000001&lt;/td&gt;&lt;/tr&gt;&lt;/tbody&gt;&lt;/table&gt;" style="shape=partialRectangle;html=1;whiteSpace=wrap;connectable=0;fillColor=none;top=0;left=0;bottom=0;right=0;overflow=hidden;" parent="KGYHmEIzNs8f1rvYr3dA-160" vertex="1">
          <mxGeometry width="142" height="30" as="geometry" />
        </mxCell>
        <mxCell id="KGYHmEIzNs8f1rvYr3dA-162" value="1" style="shape=partialRectangle;html=1;whiteSpace=wrap;connectable=0;fillColor=none;top=0;left=0;bottom=0;right=0;align=center;spacingLeft=6;overflow=hidden;fontColor=#808080;" parent="KGYHmEIzNs8f1rvYr3dA-160" vertex="1">
          <mxGeometry x="142" width="141" height="30" as="geometry" />
        </mxCell>
        <mxCell id="KGYHmEIzNs8f1rvYr3dA-163" value="" style="shape=partialRectangle;html=1;whiteSpace=wrap;collapsible=0;dropTarget=0;pointerEvents=0;fillColor=none;top=0;left=0;bottom=0;right=0;points=[[0,0.5],[1,0.5]];portConstraint=eastwest;" parent="KGYHmEIzNs8f1rvYr3dA-156" vertex="1">
          <mxGeometry y="90" width="283" height="30" as="geometry" />
        </mxCell>
        <mxCell id="KGYHmEIzNs8f1rvYr3dA-164" value="&lt;table border=&quot;0&quot; cellpadding=&quot;0&quot; cellspacing=&quot;0&quot; width=&quot;103&quot; style=&quot;border-collapse: collapse ; width: 77pt&quot;&gt;&lt;tbody&gt;&lt;tr style=&quot;height: 14.25pt&quot;&gt;&lt;td height=&quot;19&quot; width=&quot;103&quot; style=&quot;height: 14.25pt ; width: 77pt&quot;&gt;0x00000002&lt;/td&gt;&lt;/tr&gt;&lt;/tbody&gt;&lt;/table&gt;" style="shape=partialRectangle;html=1;whiteSpace=wrap;connectable=0;fillColor=none;top=0;left=0;bottom=0;right=0;overflow=hidden;" parent="KGYHmEIzNs8f1rvYr3dA-163" vertex="1">
          <mxGeometry width="142" height="30" as="geometry" />
        </mxCell>
        <mxCell id="KGYHmEIzNs8f1rvYr3dA-165" value="2" style="shape=partialRectangle;html=1;whiteSpace=wrap;connectable=0;fillColor=none;top=0;left=0;bottom=0;right=0;align=center;spacingLeft=6;overflow=hidden;" parent="KGYHmEIzNs8f1rvYr3dA-163" vertex="1">
          <mxGeometry x="142" width="141" height="30" as="geometry" />
        </mxCell>
        <mxCell id="KGYHmEIzNs8f1rvYr3dA-166" style="shape=partialRectangle;html=1;whiteSpace=wrap;collapsible=0;dropTarget=0;pointerEvents=0;fillColor=none;top=0;left=0;bottom=0;right=0;points=[[0,0.5],[1,0.5]];portConstraint=eastwest;" parent="KGYHmEIzNs8f1rvYr3dA-156" vertex="1">
          <mxGeometry y="120" width="283" height="30" as="geometry" />
        </mxCell>
        <mxCell id="KGYHmEIzNs8f1rvYr3dA-167" value="" style="shape=partialRectangle;html=1;whiteSpace=wrap;connectable=0;fillColor=none;top=0;left=0;bottom=0;right=0;overflow=hidden;" parent="KGYHmEIzNs8f1rvYr3dA-166" vertex="1">
          <mxGeometry width="142" height="30" as="geometry" />
        </mxCell>
        <mxCell id="KGYHmEIzNs8f1rvYr3dA-168" value="" style="shape=partialRectangle;html=1;whiteSpace=wrap;connectable=0;fillColor=none;top=0;left=0;bottom=0;right=0;align=center;spacingLeft=6;overflow=hidden;" parent="KGYHmEIzNs8f1rvYr3dA-166" vertex="1">
          <mxGeometry x="142" width="141" height="30" as="geometry" />
        </mxCell>
        <mxCell id="KGYHmEIzNs8f1rvYr3dA-169" style="shape=partialRectangle;html=1;whiteSpace=wrap;collapsible=0;dropTarget=0;pointerEvents=0;fillColor=none;top=0;left=0;bottom=0;right=0;points=[[0,0.5],[1,0.5]];portConstraint=eastwest;" parent="KGYHmEIzNs8f1rvYr3dA-156" vertex="1">
          <mxGeometry y="150" width="283" height="30" as="geometry" />
        </mxCell>
        <mxCell id="KGYHmEIzNs8f1rvYr3dA-170" style="shape=partialRectangle;html=1;whiteSpace=wrap;connectable=0;fillColor=none;top=0;left=0;bottom=0;right=0;overflow=hidden;" parent="KGYHmEIzNs8f1rvYr3dA-169" vertex="1">
          <mxGeometry width="142" height="30" as="geometry" />
        </mxCell>
        <mxCell id="KGYHmEIzNs8f1rvYr3dA-171" style="shape=partialRectangle;html=1;whiteSpace=wrap;connectable=0;fillColor=none;top=0;left=0;bottom=0;right=0;align=center;spacingLeft=6;overflow=hidden;" parent="KGYHmEIzNs8f1rvYr3dA-169" vertex="1">
          <mxGeometry x="142" width="141" height="30" as="geometry" />
        </mxCell>
        <mxCell id="KGYHmEIzNs8f1rvYr3dA-175" value="栈内存" style="shape=table;html=1;whiteSpace=wrap;startSize=30;container=1;collapsible=0;childLayout=tableLayout;fixedRows=1;rowLines=0;fontStyle=1;align=center;" parent="1" vertex="1">
          <mxGeometry x="575.25" y="390" width="283" height="150" as="geometry" />
        </mxCell>
        <mxCell id="KGYHmEIzNs8f1rvYr3dA-176" value="" style="shape=partialRectangle;html=1;whiteSpace=wrap;collapsible=0;dropTarget=0;pointerEvents=0;fillColor=none;top=0;left=0;bottom=1;right=0;points=[[0,0.5],[1,0.5]];portConstraint=eastwest;" parent="KGYHmEIzNs8f1rvYr3dA-175" vertex="1">
          <mxGeometry y="30" width="283" height="30" as="geometry" />
        </mxCell>
        <mxCell id="KGYHmEIzNs8f1rvYr3dA-177" value="地址" style="shape=partialRectangle;html=1;whiteSpace=wrap;connectable=0;fillColor=none;top=0;left=0;bottom=0;right=0;overflow=hidden;" parent="KGYHmEIzNs8f1rvYr3dA-176" vertex="1">
          <mxGeometry width="142" height="30" as="geometry" />
        </mxCell>
        <mxCell id="KGYHmEIzNs8f1rvYr3dA-178" value="值" style="shape=partialRectangle;html=1;whiteSpace=wrap;connectable=0;fillColor=none;top=0;left=0;bottom=0;right=0;align=center;spacingLeft=6;overflow=hidden;" parent="KGYHmEIzNs8f1rvYr3dA-176" vertex="1">
          <mxGeometry x="142" width="141" height="30" as="geometry" />
        </mxCell>
        <mxCell id="KGYHmEIzNs8f1rvYr3dA-179" value="" style="shape=partialRectangle;html=1;whiteSpace=wrap;collapsible=0;dropTarget=0;pointerEvents=0;fillColor=none;top=0;left=0;bottom=0;right=0;points=[[0,0.5],[1,0.5]];portConstraint=eastwest;" parent="KGYHmEIzNs8f1rvYr3dA-175" vertex="1">
          <mxGeometry y="60" width="283" height="30" as="geometry" />
        </mxCell>
        <mxCell id="KGYHmEIzNs8f1rvYr3dA-180" value="&lt;table border=&quot;0&quot; cellpadding=&quot;0&quot; cellspacing=&quot;0&quot; width=&quot;103&quot; style=&quot;border-collapse: collapse ; width: 77pt&quot;&gt;&lt;tbody&gt;&lt;tr style=&quot;height: 14.25pt&quot;&gt;  &lt;td height=&quot;19&quot; width=&quot;103&quot; style=&quot;height: 14.25pt ; width: 77pt&quot;&gt;0x00000001&lt;/td&gt;&lt;/tr&gt;&lt;/tbody&gt;&lt;/table&gt;" style="shape=partialRectangle;html=1;whiteSpace=wrap;connectable=0;fillColor=none;top=0;left=0;bottom=0;right=0;overflow=hidden;" parent="KGYHmEIzNs8f1rvYr3dA-179" vertex="1">
          <mxGeometry width="142" height="30" as="geometry" />
        </mxCell>
        <mxCell id="KGYHmEIzNs8f1rvYr3dA-181" value="0x00001001" style="shape=partialRectangle;html=1;whiteSpace=wrap;connectable=0;fillColor=none;top=0;left=0;bottom=0;right=0;align=center;spacingLeft=6;overflow=hidden;" parent="KGYHmEIzNs8f1rvYr3dA-179" vertex="1">
          <mxGeometry x="142" width="141" height="30" as="geometry" />
        </mxCell>
        <mxCell id="KGYHmEIzNs8f1rvYr3dA-182" value="" style="shape=partialRectangle;html=1;whiteSpace=wrap;collapsible=0;dropTarget=0;pointerEvents=0;fillColor=none;top=0;left=0;bottom=0;right=0;points=[[0,0.5],[1,0.5]];portConstraint=eastwest;" parent="KGYHmEIzNs8f1rvYr3dA-175" vertex="1">
          <mxGeometry y="90" width="283" height="30" as="geometry" />
        </mxCell>
        <mxCell id="KGYHmEIzNs8f1rvYr3dA-183" value="" style="shape=partialRectangle;html=1;whiteSpace=wrap;connectable=0;fillColor=none;top=0;left=0;bottom=0;right=0;overflow=hidden;" parent="KGYHmEIzNs8f1rvYr3dA-182" vertex="1">
          <mxGeometry width="142" height="30" as="geometry" />
        </mxCell>
        <mxCell id="KGYHmEIzNs8f1rvYr3dA-184" value="" style="shape=partialRectangle;html=1;whiteSpace=wrap;connectable=0;fillColor=none;top=0;left=0;bottom=0;right=0;align=center;spacingLeft=6;overflow=hidden;" parent="KGYHmEIzNs8f1rvYr3dA-182" vertex="1">
          <mxGeometry x="142" width="141" height="30" as="geometry" />
        </mxCell>
        <mxCell id="KGYHmEIzNs8f1rvYr3dA-185" style="shape=partialRectangle;html=1;whiteSpace=wrap;collapsible=0;dropTarget=0;pointerEvents=0;fillColor=none;top=0;left=0;bottom=0;right=0;points=[[0,0.5],[1,0.5]];portConstraint=eastwest;" parent="KGYHmEIzNs8f1rvYr3dA-175" vertex="1">
          <mxGeometry y="120" width="283" height="30" as="geometry" />
        </mxCell>
        <mxCell id="KGYHmEIzNs8f1rvYr3dA-186" value="" style="shape=partialRectangle;html=1;whiteSpace=wrap;connectable=0;fillColor=none;top=0;left=0;bottom=0;right=0;overflow=hidden;" parent="KGYHmEIzNs8f1rvYr3dA-185" vertex="1">
          <mxGeometry width="142" height="30" as="geometry" />
        </mxCell>
        <mxCell id="KGYHmEIzNs8f1rvYr3dA-187" value="" style="shape=partialRectangle;html=1;whiteSpace=wrap;connectable=0;fillColor=none;top=0;left=0;bottom=0;right=0;align=center;spacingLeft=6;overflow=hidden;" parent="KGYHmEIzNs8f1rvYr3dA-185" vertex="1">
          <mxGeometry x="142" width="141" height="30" as="geometry" />
        </mxCell>
        <mxCell id="KGYHmEIzNs8f1rvYr3dA-202" value="堆内存" style="shape=table;html=1;whiteSpace=wrap;startSize=30;container=1;collapsible=0;childLayout=tableLayout;fixedRows=1;rowLines=0;fontStyle=1;align=center;" parent="1" vertex="1">
          <mxGeometry x="917" y="392" width="283" height="150" as="geometry" />
        </mxCell>
        <mxCell id="KGYHmEIzNs8f1rvYr3dA-203" value="" style="shape=partialRectangle;html=1;whiteSpace=wrap;collapsible=0;dropTarget=0;pointerEvents=0;fillColor=none;top=0;left=0;bottom=1;right=0;points=[[0,0.5],[1,0.5]];portConstraint=eastwest;" parent="KGYHmEIzNs8f1rvYr3dA-202" vertex="1">
          <mxGeometry y="30" width="283" height="30" as="geometry" />
        </mxCell>
        <mxCell id="KGYHmEIzNs8f1rvYr3dA-204" value="地址" style="shape=partialRectangle;html=1;whiteSpace=wrap;connectable=0;fillColor=none;top=0;left=0;bottom=0;right=0;overflow=hidden;" parent="KGYHmEIzNs8f1rvYr3dA-203" vertex="1">
          <mxGeometry width="142" height="30" as="geometry" />
        </mxCell>
        <mxCell id="KGYHmEIzNs8f1rvYr3dA-205" value="值" style="shape=partialRectangle;html=1;whiteSpace=wrap;connectable=0;fillColor=none;top=0;left=0;bottom=0;right=0;align=center;spacingLeft=6;overflow=hidden;" parent="KGYHmEIzNs8f1rvYr3dA-203" vertex="1">
          <mxGeometry x="142" width="141" height="30" as="geometry" />
        </mxCell>
        <mxCell id="KGYHmEIzNs8f1rvYr3dA-206" value="" style="shape=partialRectangle;html=1;whiteSpace=wrap;collapsible=0;dropTarget=0;pointerEvents=0;fillColor=none;top=0;left=0;bottom=0;right=0;points=[[0,0.5],[1,0.5]];portConstraint=eastwest;" parent="KGYHmEIzNs8f1rvYr3dA-202" vertex="1">
          <mxGeometry y="60" width="283" height="30" as="geometry" />
        </mxCell>
        <mxCell id="KGYHmEIzNs8f1rvYr3dA-207" value="0x00001001" style="shape=partialRectangle;html=1;whiteSpace=wrap;connectable=0;fillColor=none;top=0;left=0;bottom=0;right=0;overflow=hidden;" parent="KGYHmEIzNs8f1rvYr3dA-206" vertex="1">
          <mxGeometry width="142" height="30" as="geometry" />
        </mxCell>
        <mxCell id="KGYHmEIzNs8f1rvYr3dA-208" value="{ name: &quot;Greg&quot; }" style="shape=partialRectangle;html=1;whiteSpace=wrap;connectable=0;fillColor=none;top=0;left=0;bottom=0;right=0;align=center;spacingLeft=6;overflow=hidden;" parent="KGYHmEIzNs8f1rvYr3dA-206" vertex="1">
          <mxGeometry x="142" width="141" height="30" as="geometry" />
        </mxCell>
        <mxCell id="KGYHmEIzNs8f1rvYr3dA-209" value="" style="shape=partialRectangle;html=1;whiteSpace=wrap;collapsible=0;dropTarget=0;pointerEvents=0;fillColor=none;top=0;left=0;bottom=0;right=0;points=[[0,0.5],[1,0.5]];portConstraint=eastwest;" parent="KGYHmEIzNs8f1rvYr3dA-202" vertex="1">
          <mxGeometry y="90" width="283" height="30" as="geometry" />
        </mxCell>
        <mxCell id="KGYHmEIzNs8f1rvYr3dA-210" value="" style="shape=partialRectangle;html=1;whiteSpace=wrap;connectable=0;fillColor=none;top=0;left=0;bottom=0;right=0;overflow=hidden;" parent="KGYHmEIzNs8f1rvYr3dA-209" vertex="1">
          <mxGeometry width="142" height="30" as="geometry" />
        </mxCell>
        <mxCell id="KGYHmEIzNs8f1rvYr3dA-211" value="" style="shape=partialRectangle;html=1;whiteSpace=wrap;connectable=0;fillColor=none;top=0;left=0;bottom=0;right=0;align=center;spacingLeft=6;overflow=hidden;" parent="KGYHmEIzNs8f1rvYr3dA-209" vertex="1">
          <mxGeometry x="142" width="141" height="30" as="geometry" />
        </mxCell>
        <mxCell id="KGYHmEIzNs8f1rvYr3dA-212" style="shape=partialRectangle;html=1;whiteSpace=wrap;collapsible=0;dropTarget=0;pointerEvents=0;fillColor=none;top=0;left=0;bottom=0;right=0;points=[[0,0.5],[1,0.5]];portConstraint=eastwest;" parent="KGYHmEIzNs8f1rvYr3dA-202" vertex="1">
          <mxGeometry y="120" width="283" height="30" as="geometry" />
        </mxCell>
        <mxCell id="KGYHmEIzNs8f1rvYr3dA-213" value="" style="shape=partialRectangle;html=1;whiteSpace=wrap;connectable=0;fillColor=none;top=0;left=0;bottom=0;right=0;overflow=hidden;" parent="KGYHmEIzNs8f1rvYr3dA-212" vertex="1">
          <mxGeometry width="142" height="30" as="geometry" />
        </mxCell>
        <mxCell id="KGYHmEIzNs8f1rvYr3dA-214" value="" style="shape=partialRectangle;html=1;whiteSpace=wrap;connectable=0;fillColor=none;top=0;left=0;bottom=0;right=0;align=center;spacingLeft=6;overflow=hidden;" parent="KGYHmEIzNs8f1rvYr3dA-212" vertex="1">
          <mxGeometry x="142" width="141" height="30" as="geometry" />
        </mxCell>
        <mxCell id="KGYHmEIzNs8f1rvYr3dA-220" value="栈内存" style="shape=table;html=1;whiteSpace=wrap;startSize=30;container=1;collapsible=0;childLayout=tableLayout;fixedRows=1;rowLines=0;fontStyle=1;align=center;" parent="1" vertex="1">
          <mxGeometry x="573" y="595" width="283" height="150" as="geometry" />
        </mxCell>
        <mxCell id="KGYHmEIzNs8f1rvYr3dA-221" value="" style="shape=partialRectangle;html=1;whiteSpace=wrap;collapsible=0;dropTarget=0;pointerEvents=0;fillColor=none;top=0;left=0;bottom=1;right=0;points=[[0,0.5],[1,0.5]];portConstraint=eastwest;" parent="KGYHmEIzNs8f1rvYr3dA-220" vertex="1">
          <mxGeometry y="30" width="283" height="30" as="geometry" />
        </mxCell>
        <mxCell id="KGYHmEIzNs8f1rvYr3dA-222" value="地址" style="shape=partialRectangle;html=1;whiteSpace=wrap;connectable=0;fillColor=none;top=0;left=0;bottom=0;right=0;overflow=hidden;" parent="KGYHmEIzNs8f1rvYr3dA-221" vertex="1">
          <mxGeometry width="142" height="30" as="geometry" />
        </mxCell>
        <mxCell id="KGYHmEIzNs8f1rvYr3dA-223" value="值" style="shape=partialRectangle;html=1;whiteSpace=wrap;connectable=0;fillColor=none;top=0;left=0;bottom=0;right=0;align=center;spacingLeft=6;overflow=hidden;" parent="KGYHmEIzNs8f1rvYr3dA-221" vertex="1">
          <mxGeometry x="142" width="141" height="30" as="geometry" />
        </mxCell>
        <mxCell id="KGYHmEIzNs8f1rvYr3dA-224" value="" style="shape=partialRectangle;html=1;whiteSpace=wrap;collapsible=0;dropTarget=0;pointerEvents=0;fillColor=none;top=0;left=0;bottom=0;right=0;points=[[0,0.5],[1,0.5]];portConstraint=eastwest;" parent="KGYHmEIzNs8f1rvYr3dA-220" vertex="1">
          <mxGeometry y="60" width="283" height="30" as="geometry" />
        </mxCell>
        <mxCell id="KGYHmEIzNs8f1rvYr3dA-225" value="&lt;table border=&quot;0&quot; cellpadding=&quot;0&quot; cellspacing=&quot;0&quot; width=&quot;103&quot; style=&quot;border-collapse: collapse ; width: 77pt&quot;&gt;&lt;tbody&gt;&lt;tr style=&quot;height: 14.25pt&quot;&gt;  &lt;td height=&quot;19&quot; width=&quot;103&quot; style=&quot;height: 14.25pt ; width: 77pt&quot;&gt;0x00000001&lt;/td&gt;&lt;/tr&gt;&lt;/tbody&gt;&lt;/table&gt;" style="shape=partialRectangle;html=1;whiteSpace=wrap;connectable=0;fillColor=none;top=0;left=0;bottom=0;right=0;overflow=hidden;" parent="KGYHmEIzNs8f1rvYr3dA-224" vertex="1">
          <mxGeometry width="142" height="30" as="geometry" />
        </mxCell>
        <mxCell id="KGYHmEIzNs8f1rvYr3dA-226" value="0x00001001" style="shape=partialRectangle;html=1;whiteSpace=wrap;connectable=0;fillColor=none;top=0;left=0;bottom=0;right=0;align=center;spacingLeft=6;overflow=hidden;fontColor=#808080;" parent="KGYHmEIzNs8f1rvYr3dA-224" vertex="1">
          <mxGeometry x="142" width="141" height="30" as="geometry" />
        </mxCell>
        <mxCell id="KGYHmEIzNs8f1rvYr3dA-227" value="" style="shape=partialRectangle;html=1;whiteSpace=wrap;collapsible=0;dropTarget=0;pointerEvents=0;fillColor=none;top=0;left=0;bottom=0;right=0;points=[[0,0.5],[1,0.5]];portConstraint=eastwest;" parent="KGYHmEIzNs8f1rvYr3dA-220" vertex="1">
          <mxGeometry y="90" width="283" height="30" as="geometry" />
        </mxCell>
        <mxCell id="KGYHmEIzNs8f1rvYr3dA-228" value="&lt;table border=&quot;0&quot; cellpadding=&quot;0&quot; cellspacing=&quot;0&quot; width=&quot;103&quot; style=&quot;border-collapse: collapse ; width: 77pt&quot;&gt;&lt;tbody&gt;&lt;tr style=&quot;height: 14.25pt&quot;&gt;&lt;td height=&quot;19&quot; width=&quot;103&quot; style=&quot;height: 14.25pt ; width: 77pt&quot;&gt;0x00000002&lt;/td&gt;&lt;/tr&gt;&lt;/tbody&gt;&lt;/table&gt;" style="shape=partialRectangle;html=1;whiteSpace=wrap;connectable=0;fillColor=none;top=0;left=0;bottom=0;right=0;overflow=hidden;" parent="KGYHmEIzNs8f1rvYr3dA-227" vertex="1">
          <mxGeometry width="142" height="30" as="geometry" />
        </mxCell>
        <mxCell id="KGYHmEIzNs8f1rvYr3dA-229" value="&lt;span&gt;0x00001002&lt;/span&gt;" style="shape=partialRectangle;html=1;whiteSpace=wrap;connectable=0;fillColor=none;top=0;left=0;bottom=0;right=0;align=center;spacingLeft=6;overflow=hidden;" parent="KGYHmEIzNs8f1rvYr3dA-227" vertex="1">
          <mxGeometry x="142" width="141" height="30" as="geometry" />
        </mxCell>
        <mxCell id="KGYHmEIzNs8f1rvYr3dA-230" style="shape=partialRectangle;html=1;whiteSpace=wrap;collapsible=0;dropTarget=0;pointerEvents=0;fillColor=none;top=0;left=0;bottom=0;right=0;points=[[0,0.5],[1,0.5]];portConstraint=eastwest;" parent="KGYHmEIzNs8f1rvYr3dA-220" vertex="1">
          <mxGeometry y="120" width="283" height="30" as="geometry" />
        </mxCell>
        <mxCell id="KGYHmEIzNs8f1rvYr3dA-231" value="" style="shape=partialRectangle;html=1;whiteSpace=wrap;connectable=0;fillColor=none;top=0;left=0;bottom=0;right=0;overflow=hidden;" parent="KGYHmEIzNs8f1rvYr3dA-230" vertex="1">
          <mxGeometry width="142" height="30" as="geometry" />
        </mxCell>
        <mxCell id="KGYHmEIzNs8f1rvYr3dA-232" value="" style="shape=partialRectangle;html=1;whiteSpace=wrap;connectable=0;fillColor=none;top=0;left=0;bottom=0;right=0;align=center;spacingLeft=6;overflow=hidden;" parent="KGYHmEIzNs8f1rvYr3dA-230" vertex="1">
          <mxGeometry x="142" width="141" height="30" as="geometry" />
        </mxCell>
        <mxCell id="KGYHmEIzNs8f1rvYr3dA-233" value="堆内存" style="shape=table;html=1;whiteSpace=wrap;startSize=30;container=1;collapsible=0;childLayout=tableLayout;fixedRows=1;rowLines=0;fontStyle=1;align=center;" parent="1" vertex="1">
          <mxGeometry x="914.75" y="597" width="283" height="150" as="geometry" />
        </mxCell>
        <mxCell id="KGYHmEIzNs8f1rvYr3dA-234" value="" style="shape=partialRectangle;html=1;whiteSpace=wrap;collapsible=0;dropTarget=0;pointerEvents=0;fillColor=none;top=0;left=0;bottom=1;right=0;points=[[0,0.5],[1,0.5]];portConstraint=eastwest;" parent="KGYHmEIzNs8f1rvYr3dA-233" vertex="1">
          <mxGeometry y="30" width="283" height="30" as="geometry" />
        </mxCell>
        <mxCell id="KGYHmEIzNs8f1rvYr3dA-235" value="地址" style="shape=partialRectangle;html=1;whiteSpace=wrap;connectable=0;fillColor=none;top=0;left=0;bottom=0;right=0;overflow=hidden;" parent="KGYHmEIzNs8f1rvYr3dA-234" vertex="1">
          <mxGeometry width="142" height="30" as="geometry" />
        </mxCell>
        <mxCell id="KGYHmEIzNs8f1rvYr3dA-236" value="值" style="shape=partialRectangle;html=1;whiteSpace=wrap;connectable=0;fillColor=none;top=0;left=0;bottom=0;right=0;align=center;spacingLeft=6;overflow=hidden;" parent="KGYHmEIzNs8f1rvYr3dA-234" vertex="1">
          <mxGeometry x="142" width="141" height="30" as="geometry" />
        </mxCell>
        <mxCell id="KGYHmEIzNs8f1rvYr3dA-237" value="" style="shape=partialRectangle;html=1;whiteSpace=wrap;collapsible=0;dropTarget=0;pointerEvents=0;fillColor=none;top=0;left=0;bottom=0;right=0;points=[[0,0.5],[1,0.5]];portConstraint=eastwest;" parent="KGYHmEIzNs8f1rvYr3dA-233" vertex="1">
          <mxGeometry y="60" width="283" height="30" as="geometry" />
        </mxCell>
        <mxCell id="KGYHmEIzNs8f1rvYr3dA-238" value="0x00001001" style="shape=partialRectangle;html=1;whiteSpace=wrap;connectable=0;fillColor=none;top=0;left=0;bottom=0;right=0;overflow=hidden;" parent="KGYHmEIzNs8f1rvYr3dA-237" vertex="1">
          <mxGeometry width="142" height="30" as="geometry" />
        </mxCell>
        <mxCell id="KGYHmEIzNs8f1rvYr3dA-239" value="{ name: &quot;Nicholas&quot; }" style="shape=partialRectangle;html=1;whiteSpace=wrap;connectable=0;fillColor=none;top=0;left=0;bottom=0;right=0;align=center;spacingLeft=6;overflow=hidden;fontColor=#808080;" parent="KGYHmEIzNs8f1rvYr3dA-237" vertex="1">
          <mxGeometry x="142" width="141" height="30" as="geometry" />
        </mxCell>
        <mxCell id="KGYHmEIzNs8f1rvYr3dA-240" value="" style="shape=partialRectangle;html=1;whiteSpace=wrap;collapsible=0;dropTarget=0;pointerEvents=0;fillColor=none;top=0;left=0;bottom=0;right=0;points=[[0,0.5],[1,0.5]];portConstraint=eastwest;" parent="KGYHmEIzNs8f1rvYr3dA-233" vertex="1">
          <mxGeometry y="90" width="283" height="30" as="geometry" />
        </mxCell>
        <mxCell id="KGYHmEIzNs8f1rvYr3dA-241" value="&lt;span&gt;0x00001002&lt;/span&gt;" style="shape=partialRectangle;html=1;whiteSpace=wrap;connectable=0;fillColor=none;top=0;left=0;bottom=0;right=0;overflow=hidden;" parent="KGYHmEIzNs8f1rvYr3dA-240" vertex="1">
          <mxGeometry width="142" height="30" as="geometry" />
        </mxCell>
        <mxCell id="KGYHmEIzNs8f1rvYr3dA-242" value="{ name: &quot;Greg&quot; }" style="shape=partialRectangle;html=1;whiteSpace=wrap;connectable=0;fillColor=none;top=0;left=0;bottom=0;right=0;align=center;spacingLeft=6;overflow=hidden;" parent="KGYHmEIzNs8f1rvYr3dA-240" vertex="1">
          <mxGeometry x="142" width="141" height="30" as="geometry" />
        </mxCell>
        <mxCell id="KGYHmEIzNs8f1rvYr3dA-243" style="shape=partialRectangle;html=1;whiteSpace=wrap;collapsible=0;dropTarget=0;pointerEvents=0;fillColor=none;top=0;left=0;bottom=0;right=0;points=[[0,0.5],[1,0.5]];portConstraint=eastwest;" parent="KGYHmEIzNs8f1rvYr3dA-233" vertex="1">
          <mxGeometry y="120" width="283" height="30" as="geometry" />
        </mxCell>
        <mxCell id="KGYHmEIzNs8f1rvYr3dA-244" value="" style="shape=partialRectangle;html=1;whiteSpace=wrap;connectable=0;fillColor=none;top=0;left=0;bottom=0;right=0;overflow=hidden;" parent="KGYHmEIzNs8f1rvYr3dA-243" vertex="1">
          <mxGeometry width="142" height="30" as="geometry" />
        </mxCell>
        <mxCell id="KGYHmEIzNs8f1rvYr3dA-245" value="" style="shape=partialRectangle;html=1;whiteSpace=wrap;connectable=0;fillColor=none;top=0;left=0;bottom=0;right=0;align=center;spacingLeft=6;overflow=hidden;" parent="KGYHmEIzNs8f1rvYr3dA-243" vertex="1">
          <mxGeometry x="142" width="141" height="30" as="geometry" />
        </mxCell>
        <mxCell id="KGYHmEIzNs8f1rvYr3dA-250" value="" style="endArrow=classic;html=1;" parent="1" edge="1">
          <mxGeometry width="50" height="50" relative="1" as="geometry">
            <mxPoint x="857" y="702.5" as="sourcePoint" />
            <mxPoint x="913.75" y="702" as="targetPoint" />
          </mxGeometry>
        </mxCell>
        <mxCell id="KGYHmEIzNs8f1rvYr3dA-251" value="obj" style="text;html=1;resizable=0;autosize=1;align=center;verticalAlign=middle;points=[];fillColor=none;strokeColor=none;rounded=0;" parent="1" vertex="1">
          <mxGeometry x="489.25" y="864" width="26" height="18" as="geometry" />
        </mxCell>
        <mxCell id="KGYHmEIzNs8f1rvYr3dA-252" value="变量名" style="text;html=1;resizable=0;autosize=1;align=center;verticalAlign=middle;points=[];fillColor=none;strokeColor=none;rounded=0;" parent="1" vertex="1">
          <mxGeometry x="478.75" y="836" width="46" height="18" as="geometry" />
        </mxCell>
        <mxCell id="KGYHmEIzNs8f1rvYr3dA-253" value="" style="endArrow=classic;html=1;entryX=0;entryY=0.5;entryDx=0;entryDy=0;" parent="1" source="KGYHmEIzNs8f1rvYr3dA-251" target="KGYHmEIzNs8f1rvYr3dA-259" edge="1">
          <mxGeometry width="50" height="50" relative="1" as="geometry">
            <mxPoint x="537.25" y="897" as="sourcePoint" />
            <mxPoint x="546.25" y="1003" as="targetPoint" />
          </mxGeometry>
        </mxCell>
        <mxCell id="KGYHmEIzNs8f1rvYr3dA-254" value="" style="endArrow=classic;html=1;" parent="1" edge="1">
          <mxGeometry width="50" height="50" relative="1" as="geometry">
            <mxPoint x="868.75" y="874.5" as="sourcePoint" />
            <mxPoint x="925.5" y="874" as="targetPoint" />
          </mxGeometry>
        </mxCell>
        <mxCell id="KGYHmEIzNs8f1rvYr3dA-255" value="栈内存" style="shape=table;html=1;whiteSpace=wrap;startSize=30;container=1;collapsible=0;childLayout=tableLayout;fixedRows=1;rowLines=0;fontStyle=1;align=center;" parent="1" vertex="1">
          <mxGeometry x="585.75" y="798" width="283" height="150" as="geometry" />
        </mxCell>
        <mxCell id="KGYHmEIzNs8f1rvYr3dA-256" value="" style="shape=partialRectangle;html=1;whiteSpace=wrap;collapsible=0;dropTarget=0;pointerEvents=0;fillColor=none;top=0;left=0;bottom=1;right=0;points=[[0,0.5],[1,0.5]];portConstraint=eastwest;" parent="KGYHmEIzNs8f1rvYr3dA-255" vertex="1">
          <mxGeometry y="30" width="283" height="30" as="geometry" />
        </mxCell>
        <mxCell id="KGYHmEIzNs8f1rvYr3dA-257" value="地址" style="shape=partialRectangle;html=1;whiteSpace=wrap;connectable=0;fillColor=none;top=0;left=0;bottom=0;right=0;overflow=hidden;" parent="KGYHmEIzNs8f1rvYr3dA-256" vertex="1">
          <mxGeometry width="142" height="30" as="geometry" />
        </mxCell>
        <mxCell id="KGYHmEIzNs8f1rvYr3dA-258" value="值" style="shape=partialRectangle;html=1;whiteSpace=wrap;connectable=0;fillColor=none;top=0;left=0;bottom=0;right=0;align=center;spacingLeft=6;overflow=hidden;" parent="KGYHmEIzNs8f1rvYr3dA-256" vertex="1">
          <mxGeometry x="142" width="141" height="30" as="geometry" />
        </mxCell>
        <mxCell id="KGYHmEIzNs8f1rvYr3dA-259" value="" style="shape=partialRectangle;html=1;whiteSpace=wrap;collapsible=0;dropTarget=0;pointerEvents=0;fillColor=none;top=0;left=0;bottom=0;right=0;points=[[0,0.5],[1,0.5]];portConstraint=eastwest;" parent="KGYHmEIzNs8f1rvYr3dA-255" vertex="1">
          <mxGeometry y="60" width="283" height="30" as="geometry" />
        </mxCell>
        <mxCell id="KGYHmEIzNs8f1rvYr3dA-260" value="&lt;table border=&quot;0&quot; cellpadding=&quot;0&quot; cellspacing=&quot;0&quot; width=&quot;103&quot; style=&quot;border-collapse: collapse ; width: 77pt&quot;&gt;&lt;tbody&gt;&lt;tr style=&quot;height: 14.25pt&quot;&gt;  &lt;td height=&quot;19&quot; width=&quot;103&quot; style=&quot;height: 14.25pt ; width: 77pt&quot;&gt;0x00000001&lt;/td&gt;&lt;/tr&gt;&lt;/tbody&gt;&lt;/table&gt;" style="shape=partialRectangle;html=1;whiteSpace=wrap;connectable=0;fillColor=none;top=0;left=0;bottom=0;right=0;overflow=hidden;" parent="KGYHmEIzNs8f1rvYr3dA-259" vertex="1">
          <mxGeometry width="142" height="30" as="geometry" />
        </mxCell>
        <mxCell id="KGYHmEIzNs8f1rvYr3dA-261" value="0x00001001" style="shape=partialRectangle;html=1;whiteSpace=wrap;connectable=0;fillColor=none;top=0;left=0;bottom=0;right=0;align=center;spacingLeft=6;overflow=hidden;" parent="KGYHmEIzNs8f1rvYr3dA-259" vertex="1">
          <mxGeometry x="142" width="141" height="30" as="geometry" />
        </mxCell>
        <mxCell id="KGYHmEIzNs8f1rvYr3dA-262" value="" style="shape=partialRectangle;html=1;whiteSpace=wrap;collapsible=0;dropTarget=0;pointerEvents=0;fillColor=none;top=0;left=0;bottom=0;right=0;points=[[0,0.5],[1,0.5]];portConstraint=eastwest;" parent="KGYHmEIzNs8f1rvYr3dA-255" vertex="1">
          <mxGeometry y="90" width="283" height="30" as="geometry" />
        </mxCell>
        <mxCell id="KGYHmEIzNs8f1rvYr3dA-263" value="&lt;table border=&quot;0&quot; cellpadding=&quot;0&quot; cellspacing=&quot;0&quot; width=&quot;103&quot; style=&quot;border-collapse: collapse ; width: 77pt&quot;&gt;&lt;tbody&gt;&lt;tr style=&quot;height: 14.25pt&quot;&gt;&lt;td height=&quot;19&quot; width=&quot;103&quot; style=&quot;height: 14.25pt ; width: 77pt&quot;&gt;0x00000002&lt;/td&gt;&lt;/tr&gt;&lt;/tbody&gt;&lt;/table&gt;" style="shape=partialRectangle;html=1;whiteSpace=wrap;connectable=0;fillColor=none;top=0;left=0;bottom=0;right=0;overflow=hidden;" parent="KGYHmEIzNs8f1rvYr3dA-262" vertex="1">
          <mxGeometry width="142" height="30" as="geometry" />
        </mxCell>
        <mxCell id="KGYHmEIzNs8f1rvYr3dA-264" value="&lt;span&gt;0x00001001&lt;/span&gt;" style="shape=partialRectangle;html=1;whiteSpace=wrap;connectable=0;fillColor=none;top=0;left=0;bottom=0;right=0;align=center;spacingLeft=6;overflow=hidden;" parent="KGYHmEIzNs8f1rvYr3dA-262" vertex="1">
          <mxGeometry x="142" width="141" height="30" as="geometry" />
        </mxCell>
        <mxCell id="KGYHmEIzNs8f1rvYr3dA-285" style="shape=partialRectangle;html=1;whiteSpace=wrap;collapsible=0;dropTarget=0;pointerEvents=0;fillColor=none;top=0;left=0;bottom=0;right=0;points=[[0,0.5],[1,0.5]];portConstraint=eastwest;" parent="KGYHmEIzNs8f1rvYr3dA-255" vertex="1">
          <mxGeometry y="120" width="283" height="30" as="geometry" />
        </mxCell>
        <mxCell id="KGYHmEIzNs8f1rvYr3dA-286" style="shape=partialRectangle;html=1;whiteSpace=wrap;connectable=0;fillColor=none;top=0;left=0;bottom=0;right=0;overflow=hidden;" parent="KGYHmEIzNs8f1rvYr3dA-285" vertex="1">
          <mxGeometry width="142" height="30" as="geometry" />
        </mxCell>
        <mxCell id="KGYHmEIzNs8f1rvYr3dA-287" style="shape=partialRectangle;html=1;whiteSpace=wrap;connectable=0;fillColor=none;top=0;left=0;bottom=0;right=0;align=center;spacingLeft=6;overflow=hidden;" parent="KGYHmEIzNs8f1rvYr3dA-285" vertex="1">
          <mxGeometry x="142" width="141" height="30" as="geometry" />
        </mxCell>
        <mxCell id="KGYHmEIzNs8f1rvYr3dA-268" value="堆内存" style="shape=table;html=1;whiteSpace=wrap;startSize=30;container=1;collapsible=0;childLayout=tableLayout;fixedRows=1;rowLines=0;fontStyle=1;align=center;" parent="1" vertex="1">
          <mxGeometry x="927.5" y="800" width="283" height="150" as="geometry" />
        </mxCell>
        <mxCell id="KGYHmEIzNs8f1rvYr3dA-269" value="" style="shape=partialRectangle;html=1;whiteSpace=wrap;collapsible=0;dropTarget=0;pointerEvents=0;fillColor=none;top=0;left=0;bottom=1;right=0;points=[[0,0.5],[1,0.5]];portConstraint=eastwest;" parent="KGYHmEIzNs8f1rvYr3dA-268" vertex="1">
          <mxGeometry y="30" width="283" height="30" as="geometry" />
        </mxCell>
        <mxCell id="KGYHmEIzNs8f1rvYr3dA-270" value="地址" style="shape=partialRectangle;html=1;whiteSpace=wrap;connectable=0;fillColor=none;top=0;left=0;bottom=0;right=0;overflow=hidden;" parent="KGYHmEIzNs8f1rvYr3dA-269" vertex="1">
          <mxGeometry width="142" height="30" as="geometry" />
        </mxCell>
        <mxCell id="KGYHmEIzNs8f1rvYr3dA-271" value="值" style="shape=partialRectangle;html=1;whiteSpace=wrap;connectable=0;fillColor=none;top=0;left=0;bottom=0;right=0;align=center;spacingLeft=6;overflow=hidden;" parent="KGYHmEIzNs8f1rvYr3dA-269" vertex="1">
          <mxGeometry x="142" width="141" height="30" as="geometry" />
        </mxCell>
        <mxCell id="KGYHmEIzNs8f1rvYr3dA-272" value="" style="shape=partialRectangle;html=1;whiteSpace=wrap;collapsible=0;dropTarget=0;pointerEvents=0;fillColor=none;top=0;left=0;bottom=0;right=0;points=[[0,0.5],[1,0.5]];portConstraint=eastwest;" parent="KGYHmEIzNs8f1rvYr3dA-268" vertex="1">
          <mxGeometry y="60" width="283" height="30" as="geometry" />
        </mxCell>
        <mxCell id="KGYHmEIzNs8f1rvYr3dA-273" value="0x00001001" style="shape=partialRectangle;html=1;whiteSpace=wrap;connectable=0;fillColor=none;top=0;left=0;bottom=0;right=0;overflow=hidden;" parent="KGYHmEIzNs8f1rvYr3dA-272" vertex="1">
          <mxGeometry width="142" height="30" as="geometry" />
        </mxCell>
        <mxCell id="KGYHmEIzNs8f1rvYr3dA-274" value="{ name: &quot;Nicholas&quot; }" style="shape=partialRectangle;html=1;whiteSpace=wrap;connectable=0;fillColor=none;top=0;left=0;bottom=0;right=0;align=center;spacingLeft=6;overflow=hidden;" parent="KGYHmEIzNs8f1rvYr3dA-272" vertex="1">
          <mxGeometry x="142" width="141" height="30" as="geometry" />
        </mxCell>
        <mxCell id="KGYHmEIzNs8f1rvYr3dA-275" value="" style="shape=partialRectangle;html=1;whiteSpace=wrap;collapsible=0;dropTarget=0;pointerEvents=0;fillColor=none;top=0;left=0;bottom=0;right=0;points=[[0,0.5],[1,0.5]];portConstraint=eastwest;" parent="KGYHmEIzNs8f1rvYr3dA-268" vertex="1">
          <mxGeometry y="90" width="283" height="30" as="geometry" />
        </mxCell>
        <mxCell id="KGYHmEIzNs8f1rvYr3dA-276" value="" style="shape=partialRectangle;html=1;whiteSpace=wrap;connectable=0;fillColor=none;top=0;left=0;bottom=0;right=0;overflow=hidden;" parent="KGYHmEIzNs8f1rvYr3dA-275" vertex="1">
          <mxGeometry width="142" height="30" as="geometry" />
        </mxCell>
        <mxCell id="KGYHmEIzNs8f1rvYr3dA-277" value="" style="shape=partialRectangle;html=1;whiteSpace=wrap;connectable=0;fillColor=none;top=0;left=0;bottom=0;right=0;align=center;spacingLeft=6;overflow=hidden;" parent="KGYHmEIzNs8f1rvYr3dA-275" vertex="1">
          <mxGeometry x="142" width="141" height="30" as="geometry" />
        </mxCell>
        <mxCell id="KGYHmEIzNs8f1rvYr3dA-278" style="shape=partialRectangle;html=1;whiteSpace=wrap;collapsible=0;dropTarget=0;pointerEvents=0;fillColor=none;top=0;left=0;bottom=0;right=0;points=[[0,0.5],[1,0.5]];portConstraint=eastwest;" parent="KGYHmEIzNs8f1rvYr3dA-268" vertex="1">
          <mxGeometry y="120" width="283" height="30" as="geometry" />
        </mxCell>
        <mxCell id="KGYHmEIzNs8f1rvYr3dA-279" value="" style="shape=partialRectangle;html=1;whiteSpace=wrap;connectable=0;fillColor=none;top=0;left=0;bottom=0;right=0;overflow=hidden;" parent="KGYHmEIzNs8f1rvYr3dA-278" vertex="1">
          <mxGeometry width="142" height="30" as="geometry" />
        </mxCell>
        <mxCell id="KGYHmEIzNs8f1rvYr3dA-280" value="" style="shape=partialRectangle;html=1;whiteSpace=wrap;connectable=0;fillColor=none;top=0;left=0;bottom=0;right=0;align=center;spacingLeft=6;overflow=hidden;" parent="KGYHmEIzNs8f1rvYr3dA-278" vertex="1">
          <mxGeometry x="142" width="141" height="30" as="geometry" />
        </mxCell>
        <mxCell id="KGYHmEIzNs8f1rvYr3dA-283" value="obj2" style="text;html=1;resizable=0;autosize=1;align=center;verticalAlign=middle;points=[];fillColor=none;strokeColor=none;rounded=0;" parent="1" vertex="1">
          <mxGeometry x="486.25" y="891" width="33" height="18" as="geometry" />
        </mxCell>
        <mxCell id="KGYHmEIzNs8f1rvYr3dA-284" value="" style="endArrow=classic;html=1;entryX=0;entryY=0.5;entryDx=0;entryDy=0;" parent="1" source="KGYHmEIzNs8f1rvYr3dA-283" edge="1">
          <mxGeometry width="50" height="50" relative="1" as="geometry">
            <mxPoint x="537.25" y="924" as="sourcePoint" />
            <mxPoint x="585.75" y="900" as="targetPoint" />
          </mxGeometry>
        </mxCell>
        <mxCell id="KGYHmEIzNs8f1rvYr3dA-288" value="" style="curved=1;endArrow=classic;html=1;fontColor=#808080;entryX=0;entryY=0.5;entryDx=0;entryDy=0;exitX=1.008;exitY=0.767;exitDx=0;exitDy=0;exitPerimeter=0;" parent="1" source="KGYHmEIzNs8f1rvYr3dA-262" target="KGYHmEIzNs8f1rvYr3dA-272" edge="1">
          <mxGeometry width="50" height="50" relative="1" as="geometry">
            <mxPoint x="877.5" y="976" as="sourcePoint" />
            <mxPoint x="927.5" y="926" as="targetPoint" />
            <Array as="points">
              <mxPoint x="889" y="888" />
              <mxPoint x="911" y="903" />
            </Array>
          </mxGeometry>
        </mxCell>
        <mxCell id="KGYHmEIzNs8f1rvYr3dA-290" value="person" style="text;html=1;resizable=0;autosize=1;align=center;verticalAlign=middle;points=[];fillColor=none;strokeColor=none;rounded=0;" parent="1" vertex="1">
          <mxGeometry x="480.75" y="1040" width="47" height="18" as="geometry" />
        </mxCell>
        <mxCell id="KGYHmEIzNs8f1rvYr3dA-291" value="变量名" style="text;html=1;resizable=0;autosize=1;align=center;verticalAlign=middle;points=[];fillColor=none;strokeColor=none;rounded=0;" parent="1" vertex="1">
          <mxGeometry x="480.25" y="1012" width="46" height="18" as="geometry" />
        </mxCell>
        <mxCell id="KGYHmEIzNs8f1rvYr3dA-292" value="" style="endArrow=classic;html=1;entryX=0;entryY=0.5;entryDx=0;entryDy=0;" parent="1" source="KGYHmEIzNs8f1rvYr3dA-290" target="KGYHmEIzNs8f1rvYr3dA-298" edge="1">
          <mxGeometry width="50" height="50" relative="1" as="geometry">
            <mxPoint x="538.75" y="1073" as="sourcePoint" />
            <mxPoint x="547.75" y="1179" as="targetPoint" />
          </mxGeometry>
        </mxCell>
        <mxCell id="KGYHmEIzNs8f1rvYr3dA-293" value="" style="endArrow=classic;html=1;" parent="1" edge="1">
          <mxGeometry width="50" height="50" relative="1" as="geometry">
            <mxPoint x="870.25" y="1050.5" as="sourcePoint" />
            <mxPoint x="927" y="1050" as="targetPoint" />
          </mxGeometry>
        </mxCell>
        <mxCell id="KGYHmEIzNs8f1rvYr3dA-320" value="obj" style="text;html=1;resizable=0;autosize=1;align=center;verticalAlign=middle;points=[];fillColor=none;strokeColor=none;rounded=0;" parent="1" vertex="1">
          <mxGeometry x="491.75" y="1067" width="26" height="18" as="geometry" />
        </mxCell>
        <mxCell id="KGYHmEIzNs8f1rvYr3dA-321" value="" style="endArrow=classic;html=1;entryX=0;entryY=0.5;entryDx=0;entryDy=0;" parent="1" source="KGYHmEIzNs8f1rvYr3dA-320" edge="1">
          <mxGeometry width="50" height="50" relative="1" as="geometry">
            <mxPoint x="538.75" y="1100" as="sourcePoint" />
            <mxPoint x="587.25" y="1076" as="targetPoint" />
          </mxGeometry>
        </mxCell>
        <mxCell id="KGYHmEIzNs8f1rvYr3dA-322" value="" style="curved=1;endArrow=classic;html=1;fontColor=#808080;entryX=0;entryY=0.5;entryDx=0;entryDy=0;exitX=1.008;exitY=0.767;exitDx=0;exitDy=0;exitPerimeter=0;" parent="1" source="KGYHmEIzNs8f1rvYr3dA-301" target="KGYHmEIzNs8f1rvYr3dA-311" edge="1">
          <mxGeometry width="50" height="50" relative="1" as="geometry">
            <mxPoint x="879" y="1152" as="sourcePoint" />
            <mxPoint x="929" y="1102" as="targetPoint" />
            <Array as="points">
              <mxPoint x="890.5" y="1064" />
              <mxPoint x="912.5" y="1079" />
            </Array>
          </mxGeometry>
        </mxCell>
        <mxCell id="KGYHmEIzNs8f1rvYr3dA-294" value="栈内存" style="shape=table;html=1;whiteSpace=wrap;startSize=30;container=1;collapsible=0;childLayout=tableLayout;fixedRows=1;rowLines=0;fontStyle=1;align=center;" parent="1" vertex="1">
          <mxGeometry x="587.25" y="974" width="283" height="150" as="geometry" />
        </mxCell>
        <mxCell id="KGYHmEIzNs8f1rvYr3dA-295" value="" style="shape=partialRectangle;html=1;whiteSpace=wrap;collapsible=0;dropTarget=0;pointerEvents=0;fillColor=none;top=0;left=0;bottom=1;right=0;points=[[0,0.5],[1,0.5]];portConstraint=eastwest;" parent="KGYHmEIzNs8f1rvYr3dA-294" vertex="1">
          <mxGeometry y="30" width="283" height="30" as="geometry" />
        </mxCell>
        <mxCell id="KGYHmEIzNs8f1rvYr3dA-296" value="地址" style="shape=partialRectangle;html=1;whiteSpace=wrap;connectable=0;fillColor=none;top=0;left=0;bottom=0;right=0;overflow=hidden;" parent="KGYHmEIzNs8f1rvYr3dA-295" vertex="1">
          <mxGeometry width="142" height="30" as="geometry" />
        </mxCell>
        <mxCell id="KGYHmEIzNs8f1rvYr3dA-297" value="值" style="shape=partialRectangle;html=1;whiteSpace=wrap;connectable=0;fillColor=none;top=0;left=0;bottom=0;right=0;align=center;spacingLeft=6;overflow=hidden;" parent="KGYHmEIzNs8f1rvYr3dA-295" vertex="1">
          <mxGeometry x="142" width="141" height="30" as="geometry" />
        </mxCell>
        <mxCell id="KGYHmEIzNs8f1rvYr3dA-298" value="" style="shape=partialRectangle;html=1;whiteSpace=wrap;collapsible=0;dropTarget=0;pointerEvents=0;fillColor=none;top=0;left=0;bottom=0;right=0;points=[[0,0.5],[1,0.5]];portConstraint=eastwest;" parent="KGYHmEIzNs8f1rvYr3dA-294" vertex="1">
          <mxGeometry y="60" width="283" height="30" as="geometry" />
        </mxCell>
        <mxCell id="KGYHmEIzNs8f1rvYr3dA-299" value="&lt;table border=&quot;0&quot; cellpadding=&quot;0&quot; cellspacing=&quot;0&quot; width=&quot;103&quot; style=&quot;border-collapse: collapse ; width: 77pt&quot;&gt;&lt;tbody&gt;&lt;tr style=&quot;height: 14.25pt&quot;&gt;  &lt;td height=&quot;19&quot; width=&quot;103&quot; style=&quot;height: 14.25pt ; width: 77pt&quot;&gt;0x00000001&lt;/td&gt;&lt;/tr&gt;&lt;/tbody&gt;&lt;/table&gt;" style="shape=partialRectangle;html=1;whiteSpace=wrap;connectable=0;fillColor=none;top=0;left=0;bottom=0;right=0;overflow=hidden;" parent="KGYHmEIzNs8f1rvYr3dA-298" vertex="1">
          <mxGeometry width="142" height="30" as="geometry" />
        </mxCell>
        <mxCell id="KGYHmEIzNs8f1rvYr3dA-300" value="0x00001001" style="shape=partialRectangle;html=1;whiteSpace=wrap;connectable=0;fillColor=none;top=0;left=0;bottom=0;right=0;align=center;spacingLeft=6;overflow=hidden;" parent="KGYHmEIzNs8f1rvYr3dA-298" vertex="1">
          <mxGeometry x="142" width="141" height="30" as="geometry" />
        </mxCell>
        <mxCell id="KGYHmEIzNs8f1rvYr3dA-301" value="" style="shape=partialRectangle;html=1;whiteSpace=wrap;collapsible=0;dropTarget=0;pointerEvents=0;fillColor=none;top=0;left=0;bottom=0;right=0;points=[[0,0.5],[1,0.5]];portConstraint=eastwest;" parent="KGYHmEIzNs8f1rvYr3dA-294" vertex="1">
          <mxGeometry y="90" width="283" height="30" as="geometry" />
        </mxCell>
        <mxCell id="KGYHmEIzNs8f1rvYr3dA-302" value="&lt;table border=&quot;0&quot; cellpadding=&quot;0&quot; cellspacing=&quot;0&quot; width=&quot;103&quot; style=&quot;border-collapse: collapse ; width: 77pt&quot;&gt;&lt;tbody&gt;&lt;tr style=&quot;height: 14.25pt&quot;&gt;&lt;td height=&quot;19&quot; width=&quot;103&quot; style=&quot;height: 14.25pt ; width: 77pt&quot;&gt;0x00000002&lt;/td&gt;&lt;/tr&gt;&lt;/tbody&gt;&lt;/table&gt;" style="shape=partialRectangle;html=1;whiteSpace=wrap;connectable=0;fillColor=none;top=0;left=0;bottom=0;right=0;overflow=hidden;" parent="KGYHmEIzNs8f1rvYr3dA-301" vertex="1">
          <mxGeometry width="142" height="30" as="geometry" />
        </mxCell>
        <mxCell id="KGYHmEIzNs8f1rvYr3dA-303" value="&lt;span&gt;0x00001001&lt;/span&gt;" style="shape=partialRectangle;html=1;whiteSpace=wrap;connectable=0;fillColor=none;top=0;left=0;bottom=0;right=0;align=center;spacingLeft=6;overflow=hidden;" parent="KGYHmEIzNs8f1rvYr3dA-301" vertex="1">
          <mxGeometry x="142" width="141" height="30" as="geometry" />
        </mxCell>
        <mxCell id="KGYHmEIzNs8f1rvYr3dA-304" style="shape=partialRectangle;html=1;whiteSpace=wrap;collapsible=0;dropTarget=0;pointerEvents=0;fillColor=none;top=0;left=0;bottom=0;right=0;points=[[0,0.5],[1,0.5]];portConstraint=eastwest;" parent="KGYHmEIzNs8f1rvYr3dA-294" vertex="1">
          <mxGeometry y="120" width="283" height="30" as="geometry" />
        </mxCell>
        <mxCell id="KGYHmEIzNs8f1rvYr3dA-305" style="shape=partialRectangle;html=1;whiteSpace=wrap;connectable=0;fillColor=none;top=0;left=0;bottom=0;right=0;overflow=hidden;" parent="KGYHmEIzNs8f1rvYr3dA-304" vertex="1">
          <mxGeometry width="142" height="30" as="geometry" />
        </mxCell>
        <mxCell id="KGYHmEIzNs8f1rvYr3dA-306" style="shape=partialRectangle;html=1;whiteSpace=wrap;connectable=0;fillColor=none;top=0;left=0;bottom=0;right=0;align=center;spacingLeft=6;overflow=hidden;" parent="KGYHmEIzNs8f1rvYr3dA-304" vertex="1">
          <mxGeometry x="142" width="141" height="30" as="geometry" />
        </mxCell>
        <mxCell id="KGYHmEIzNs8f1rvYr3dA-307" value="堆内存" style="shape=table;html=1;whiteSpace=wrap;startSize=30;container=1;collapsible=0;childLayout=tableLayout;fixedRows=1;rowLines=0;fontStyle=1;align=center;" parent="1" vertex="1">
          <mxGeometry x="929" y="976" width="283" height="150" as="geometry" />
        </mxCell>
        <mxCell id="KGYHmEIzNs8f1rvYr3dA-308" value="" style="shape=partialRectangle;html=1;whiteSpace=wrap;collapsible=0;dropTarget=0;pointerEvents=0;fillColor=none;top=0;left=0;bottom=1;right=0;points=[[0,0.5],[1,0.5]];portConstraint=eastwest;" parent="KGYHmEIzNs8f1rvYr3dA-307" vertex="1">
          <mxGeometry y="30" width="283" height="30" as="geometry" />
        </mxCell>
        <mxCell id="KGYHmEIzNs8f1rvYr3dA-309" value="地址" style="shape=partialRectangle;html=1;whiteSpace=wrap;connectable=0;fillColor=none;top=0;left=0;bottom=0;right=0;overflow=hidden;" parent="KGYHmEIzNs8f1rvYr3dA-308" vertex="1">
          <mxGeometry width="142" height="30" as="geometry" />
        </mxCell>
        <mxCell id="KGYHmEIzNs8f1rvYr3dA-310" value="值" style="shape=partialRectangle;html=1;whiteSpace=wrap;connectable=0;fillColor=none;top=0;left=0;bottom=0;right=0;align=center;spacingLeft=6;overflow=hidden;" parent="KGYHmEIzNs8f1rvYr3dA-308" vertex="1">
          <mxGeometry x="142" width="141" height="30" as="geometry" />
        </mxCell>
        <mxCell id="KGYHmEIzNs8f1rvYr3dA-311" value="" style="shape=partialRectangle;html=1;whiteSpace=wrap;collapsible=0;dropTarget=0;pointerEvents=0;fillColor=none;top=0;left=0;bottom=0;right=0;points=[[0,0.5],[1,0.5]];portConstraint=eastwest;" parent="KGYHmEIzNs8f1rvYr3dA-307" vertex="1">
          <mxGeometry y="60" width="283" height="30" as="geometry" />
        </mxCell>
        <mxCell id="KGYHmEIzNs8f1rvYr3dA-312" value="0x00001001" style="shape=partialRectangle;html=1;whiteSpace=wrap;connectable=0;fillColor=none;top=0;left=0;bottom=0;right=0;overflow=hidden;" parent="KGYHmEIzNs8f1rvYr3dA-311" vertex="1">
          <mxGeometry width="142" height="30" as="geometry" />
        </mxCell>
        <mxCell id="KGYHmEIzNs8f1rvYr3dA-313" value="{ name: &quot;Nicholas&quot; }" style="shape=partialRectangle;html=1;whiteSpace=wrap;connectable=0;fillColor=none;top=0;left=0;bottom=0;right=0;align=center;spacingLeft=6;overflow=hidden;" parent="KGYHmEIzNs8f1rvYr3dA-311" vertex="1">
          <mxGeometry x="142" width="141" height="30" as="geometry" />
        </mxCell>
        <mxCell id="KGYHmEIzNs8f1rvYr3dA-314" value="" style="shape=partialRectangle;html=1;whiteSpace=wrap;collapsible=0;dropTarget=0;pointerEvents=0;fillColor=none;top=0;left=0;bottom=0;right=0;points=[[0,0.5],[1,0.5]];portConstraint=eastwest;" parent="KGYHmEIzNs8f1rvYr3dA-307" vertex="1">
          <mxGeometry y="90" width="283" height="30" as="geometry" />
        </mxCell>
        <mxCell id="KGYHmEIzNs8f1rvYr3dA-315" value="" style="shape=partialRectangle;html=1;whiteSpace=wrap;connectable=0;fillColor=none;top=0;left=0;bottom=0;right=0;overflow=hidden;" parent="KGYHmEIzNs8f1rvYr3dA-314" vertex="1">
          <mxGeometry width="142" height="30" as="geometry" />
        </mxCell>
        <mxCell id="KGYHmEIzNs8f1rvYr3dA-316" value="" style="shape=partialRectangle;html=1;whiteSpace=wrap;connectable=0;fillColor=none;top=0;left=0;bottom=0;right=0;align=center;spacingLeft=6;overflow=hidden;" parent="KGYHmEIzNs8f1rvYr3dA-314" vertex="1">
          <mxGeometry x="142" width="141" height="30" as="geometry" />
        </mxCell>
        <mxCell id="KGYHmEIzNs8f1rvYr3dA-317" style="shape=partialRectangle;html=1;whiteSpace=wrap;collapsible=0;dropTarget=0;pointerEvents=0;fillColor=none;top=0;left=0;bottom=0;right=0;points=[[0,0.5],[1,0.5]];portConstraint=eastwest;" parent="KGYHmEIzNs8f1rvYr3dA-307" vertex="1">
          <mxGeometry y="120" width="283" height="30" as="geometry" />
        </mxCell>
        <mxCell id="KGYHmEIzNs8f1rvYr3dA-318" value="" style="shape=partialRectangle;html=1;whiteSpace=wrap;connectable=0;fillColor=none;top=0;left=0;bottom=0;right=0;overflow=hidden;" parent="KGYHmEIzNs8f1rvYr3dA-317" vertex="1">
          <mxGeometry width="142" height="30" as="geometry" />
        </mxCell>
        <mxCell id="KGYHmEIzNs8f1rvYr3dA-319" value="" style="shape=partialRectangle;html=1;whiteSpace=wrap;connectable=0;fillColor=none;top=0;left=0;bottom=0;right=0;align=center;spacingLeft=6;overflow=hidden;" parent="KGYHmEIzNs8f1rvYr3dA-317" vertex="1">
          <mxGeometry x="142" width="141" height="30" as="geometry" />
        </mxCell>
        <mxCell id="KGYHmEIzNs8f1rvYr3dA-106" value="person" style="text;html=1;resizable=0;autosize=1;align=center;verticalAlign=middle;points=[];fillColor=none;strokeColor=none;rounded=0;" vertex="1" parent="1">
          <mxGeometry x="479.5" y="1233" width="47" height="18" as="geometry" />
        </mxCell>
        <mxCell id="KGYHmEIzNs8f1rvYr3dA-107" value="变量名" style="text;html=1;resizable=0;autosize=1;align=center;verticalAlign=middle;points=[];fillColor=none;strokeColor=none;rounded=0;" vertex="1" parent="1">
          <mxGeometry x="479" y="1205" width="46" height="18" as="geometry" />
        </mxCell>
        <mxCell id="KGYHmEIzNs8f1rvYr3dA-108" value="" style="endArrow=classic;html=1;entryX=0;entryY=0.5;entryDx=0;entryDy=0;" edge="1" parent="1" source="KGYHmEIzNs8f1rvYr3dA-106" target="KGYHmEIzNs8f1rvYr3dA-117">
          <mxGeometry width="50" height="50" relative="1" as="geometry">
            <mxPoint x="537.5" y="1266" as="sourcePoint" />
            <mxPoint x="546.5" y="1372" as="targetPoint" />
          </mxGeometry>
        </mxCell>
        <mxCell id="KGYHmEIzNs8f1rvYr3dA-109" value="" style="endArrow=classic;html=1;" edge="1" parent="1">
          <mxGeometry width="50" height="50" relative="1" as="geometry">
            <mxPoint x="869" y="1243.5" as="sourcePoint" />
            <mxPoint x="925.75" y="1243" as="targetPoint" />
          </mxGeometry>
        </mxCell>
        <mxCell id="KGYHmEIzNs8f1rvYr3dA-110" value="obj" style="text;html=1;resizable=0;autosize=1;align=center;verticalAlign=middle;points=[];fillColor=none;strokeColor=none;rounded=0;" vertex="1" parent="1">
          <mxGeometry x="490.5" y="1291" width="26" height="18" as="geometry" />
        </mxCell>
        <mxCell id="KGYHmEIzNs8f1rvYr3dA-111" value="" style="endArrow=classic;html=1;entryX=0;entryY=0.5;entryDx=0;entryDy=0;" edge="1" parent="1" source="KGYHmEIzNs8f1rvYr3dA-110">
          <mxGeometry width="50" height="50" relative="1" as="geometry">
            <mxPoint x="537.5" y="1324" as="sourcePoint" />
            <mxPoint x="586" y="1300" as="targetPoint" />
          </mxGeometry>
        </mxCell>
        <mxCell id="KGYHmEIzNs8f1rvYr3dA-112" value="" style="curved=1;endArrow=classic;html=1;fontColor=#808080;entryX=0;entryY=0.5;entryDx=0;entryDy=0;" edge="1" parent="1" target="KGYHmEIzNs8f1rvYr3dA-130">
          <mxGeometry width="50" height="50" relative="1" as="geometry">
            <mxPoint x="871" y="1272" as="sourcePoint" />
            <mxPoint x="927.75" y="1295" as="targetPoint" />
            <Array as="points">
              <mxPoint x="889.25" y="1257" />
              <mxPoint x="911.25" y="1272" />
            </Array>
          </mxGeometry>
        </mxCell>
        <mxCell id="KGYHmEIzNs8f1rvYr3dA-195" value="" style="curved=1;endArrow=classic;html=1;fontColor=#808080;entryX=0;entryY=0.5;entryDx=0;entryDy=0;exitX=1;exitY=0.5;exitDx=0;exitDy=0;" edge="1" parent="1" source="KGYHmEIzNs8f1rvYr3dA-123" target="KGYHmEIzNs8f1rvYr3dA-134">
          <mxGeometry width="50" height="50" relative="1" as="geometry">
            <mxPoint x="840" y="1233" as="sourcePoint" />
            <mxPoint x="890" y="1183" as="targetPoint" />
            <Array as="points">
              <mxPoint x="886" y="1294" />
              <mxPoint x="916" y="1294" />
            </Array>
          </mxGeometry>
        </mxCell>
        <mxCell id="KGYHmEIzNs8f1rvYr3dA-196" value="person" style="text;html=1;resizable=0;autosize=1;align=center;verticalAlign=middle;points=[];fillColor=none;strokeColor=none;rounded=0;" vertex="1" parent="1">
          <mxGeometry x="465.5" y="1467" width="47" height="18" as="geometry" />
        </mxCell>
        <mxCell id="KGYHmEIzNs8f1rvYr3dA-197" value="变量名" style="text;html=1;resizable=0;autosize=1;align=center;verticalAlign=middle;points=[];fillColor=none;strokeColor=none;rounded=0;" vertex="1" parent="1">
          <mxGeometry x="465" y="1439" width="46" height="18" as="geometry" />
        </mxCell>
        <mxCell id="KGYHmEIzNs8f1rvYr3dA-198" value="" style="endArrow=classic;html=1;entryX=0;entryY=0.5;entryDx=0;entryDy=0;" edge="1" parent="1" source="KGYHmEIzNs8f1rvYr3dA-196" target="KGYHmEIzNs8f1rvYr3dA-266">
          <mxGeometry width="50" height="50" relative="1" as="geometry">
            <mxPoint x="523.5" y="1500" as="sourcePoint" />
            <mxPoint x="532.5" y="1606" as="targetPoint" />
          </mxGeometry>
        </mxCell>
        <mxCell id="KGYHmEIzNs8f1rvYr3dA-199" value="" style="endArrow=classic;html=1;" edge="1" parent="1">
          <mxGeometry width="50" height="50" relative="1" as="geometry">
            <mxPoint x="855" y="1477.5" as="sourcePoint" />
            <mxPoint x="911.75" y="1477" as="targetPoint" />
          </mxGeometry>
        </mxCell>
        <mxCell id="KGYHmEIzNs8f1rvYr3dA-200" value="obj" style="text;html=1;resizable=0;autosize=1;align=center;verticalAlign=middle;points=[];fillColor=none;strokeColor=none;rounded=0;" vertex="1" parent="1">
          <mxGeometry x="476.5" y="1525" width="26" height="18" as="geometry" />
        </mxCell>
        <mxCell id="KGYHmEIzNs8f1rvYr3dA-201" value="" style="endArrow=classic;html=1;entryX=0;entryY=0.5;entryDx=0;entryDy=0;" edge="1" parent="1" source="KGYHmEIzNs8f1rvYr3dA-200">
          <mxGeometry width="50" height="50" relative="1" as="geometry">
            <mxPoint x="523.5" y="1558" as="sourcePoint" />
            <mxPoint x="572" y="1534" as="targetPoint" />
          </mxGeometry>
        </mxCell>
        <mxCell id="KGYHmEIzNs8f1rvYr3dA-215" value="" style="curved=1;endArrow=classic;html=1;fontColor=#808080;entryX=0;entryY=0.5;entryDx=0;entryDy=0;" edge="1" parent="1" target="KGYHmEIzNs8f1rvYr3dA-334">
          <mxGeometry width="50" height="50" relative="1" as="geometry">
            <mxPoint x="857" y="1506" as="sourcePoint" />
            <mxPoint x="913.75" y="1529" as="targetPoint" />
            <Array as="points">
              <mxPoint x="875.25" y="1491" />
              <mxPoint x="897.25" y="1506" />
            </Array>
          </mxGeometry>
        </mxCell>
        <mxCell id="KGYHmEIzNs8f1rvYr3dA-343" value="" style="curved=1;endArrow=classic;html=1;fontColor=#808080;entryX=0;entryY=0.5;entryDx=0;entryDy=0;exitX=1;exitY=0.5;exitDx=0;exitDy=0;" edge="1" parent="1" source="KGYHmEIzNs8f1rvYr3dA-324" target="KGYHmEIzNs8f1rvYr3dA-337">
          <mxGeometry width="50" height="50" relative="1" as="geometry">
            <mxPoint x="826" y="1467" as="sourcePoint" />
            <mxPoint x="876" y="1417" as="targetPoint" />
            <Array as="points">
              <mxPoint x="872" y="1528" />
              <mxPoint x="902" y="1528" />
            </Array>
          </mxGeometry>
        </mxCell>
        <mxCell id="KGYHmEIzNs8f1rvYr3dA-247" value="栈内存" style="shape=table;html=1;whiteSpace=wrap;startSize=30;container=1;collapsible=0;childLayout=tableLayout;fixedRows=1;rowLines=0;fontStyle=1;align=center;" vertex="1" parent="1">
          <mxGeometry x="572" y="1401" width="283" height="180" as="geometry" />
        </mxCell>
        <mxCell id="KGYHmEIzNs8f1rvYr3dA-248" value="" style="shape=partialRectangle;html=1;whiteSpace=wrap;collapsible=0;dropTarget=0;pointerEvents=0;fillColor=none;top=0;left=0;bottom=1;right=0;points=[[0,0.5],[1,0.5]];portConstraint=eastwest;" vertex="1" parent="KGYHmEIzNs8f1rvYr3dA-247">
          <mxGeometry y="30" width="283" height="30" as="geometry" />
        </mxCell>
        <mxCell id="KGYHmEIzNs8f1rvYr3dA-249" value="地址" style="shape=partialRectangle;html=1;whiteSpace=wrap;connectable=0;fillColor=none;top=0;left=0;bottom=0;right=0;overflow=hidden;" vertex="1" parent="KGYHmEIzNs8f1rvYr3dA-248">
          <mxGeometry width="142" height="30" as="geometry" />
        </mxCell>
        <mxCell id="KGYHmEIzNs8f1rvYr3dA-265" value="值" style="shape=partialRectangle;html=1;whiteSpace=wrap;connectable=0;fillColor=none;top=0;left=0;bottom=0;right=0;align=center;spacingLeft=6;overflow=hidden;" vertex="1" parent="KGYHmEIzNs8f1rvYr3dA-248">
          <mxGeometry x="142" width="141" height="30" as="geometry" />
        </mxCell>
        <mxCell id="KGYHmEIzNs8f1rvYr3dA-266" value="" style="shape=partialRectangle;html=1;whiteSpace=wrap;collapsible=0;dropTarget=0;pointerEvents=0;fillColor=none;top=0;left=0;bottom=0;right=0;points=[[0,0.5],[1,0.5]];portConstraint=eastwest;" vertex="1" parent="KGYHmEIzNs8f1rvYr3dA-247">
          <mxGeometry y="60" width="283" height="30" as="geometry" />
        </mxCell>
        <mxCell id="KGYHmEIzNs8f1rvYr3dA-267" value="&lt;table border=&quot;0&quot; cellpadding=&quot;0&quot; cellspacing=&quot;0&quot; width=&quot;103&quot; style=&quot;border-collapse: collapse ; width: 77pt&quot;&gt;&lt;tbody&gt;&lt;tr style=&quot;height: 14.25pt&quot;&gt;  &lt;td height=&quot;19&quot; width=&quot;103&quot; style=&quot;height: 14.25pt ; width: 77pt&quot;&gt;0x00000001&lt;/td&gt;&lt;/tr&gt;&lt;/tbody&gt;&lt;/table&gt;" style="shape=partialRectangle;html=1;whiteSpace=wrap;connectable=0;fillColor=none;top=0;left=0;bottom=0;right=0;overflow=hidden;" vertex="1" parent="KGYHmEIzNs8f1rvYr3dA-266">
          <mxGeometry width="142" height="30" as="geometry" />
        </mxCell>
        <mxCell id="KGYHmEIzNs8f1rvYr3dA-281" value="0x00001001" style="shape=partialRectangle;html=1;whiteSpace=wrap;connectable=0;fillColor=none;top=0;left=0;bottom=0;right=0;align=center;spacingLeft=6;overflow=hidden;" vertex="1" parent="KGYHmEIzNs8f1rvYr3dA-266">
          <mxGeometry x="142" width="141" height="30" as="geometry" />
        </mxCell>
        <mxCell id="KGYHmEIzNs8f1rvYr3dA-282" value="" style="shape=partialRectangle;html=1;whiteSpace=wrap;collapsible=0;dropTarget=0;pointerEvents=0;fillColor=none;top=0;left=0;bottom=0;right=0;points=[[0,0.5],[1,0.5]];portConstraint=eastwest;" vertex="1" parent="KGYHmEIzNs8f1rvYr3dA-247">
          <mxGeometry y="90" width="283" height="30" as="geometry" />
        </mxCell>
        <mxCell id="KGYHmEIzNs8f1rvYr3dA-289" value="&lt;table border=&quot;0&quot; cellpadding=&quot;0&quot; cellspacing=&quot;0&quot; width=&quot;103&quot; style=&quot;border-collapse: collapse ; width: 77pt&quot;&gt;&lt;tbody&gt;&lt;tr style=&quot;height: 14.25pt&quot;&gt;&lt;td height=&quot;19&quot; width=&quot;103&quot; style=&quot;height: 14.25pt ; width: 77pt&quot;&gt;0x00000002&lt;/td&gt;&lt;/tr&gt;&lt;/tbody&gt;&lt;/table&gt;" style="shape=partialRectangle;html=1;whiteSpace=wrap;connectable=0;fillColor=none;top=0;left=0;bottom=0;right=0;overflow=hidden;" vertex="1" parent="KGYHmEIzNs8f1rvYr3dA-282">
          <mxGeometry width="142" height="30" as="geometry" />
        </mxCell>
        <mxCell id="KGYHmEIzNs8f1rvYr3dA-323" value="&lt;span&gt;0x00001001&lt;/span&gt;" style="shape=partialRectangle;html=1;whiteSpace=wrap;connectable=0;fillColor=none;top=0;left=0;bottom=0;right=0;align=center;spacingLeft=6;overflow=hidden;" vertex="1" parent="KGYHmEIzNs8f1rvYr3dA-282">
          <mxGeometry x="142" width="141" height="30" as="geometry" />
        </mxCell>
        <mxCell id="KGYHmEIzNs8f1rvYr3dA-324" style="shape=partialRectangle;html=1;whiteSpace=wrap;collapsible=0;dropTarget=0;pointerEvents=0;fillColor=none;top=0;left=0;bottom=0;right=0;points=[[0,0.5],[1,0.5]];portConstraint=eastwest;" vertex="1" parent="KGYHmEIzNs8f1rvYr3dA-247">
          <mxGeometry y="120" width="283" height="30" as="geometry" />
        </mxCell>
        <mxCell id="KGYHmEIzNs8f1rvYr3dA-325" value="&lt;table border=&quot;0&quot; cellpadding=&quot;0&quot; cellspacing=&quot;0&quot; width=&quot;103&quot; style=&quot;border-collapse: collapse ; width: 77pt&quot;&gt;&lt;tbody&gt;&lt;tr style=&quot;height: 14.25pt&quot;&gt;&lt;td height=&quot;19&quot; width=&quot;103&quot; style=&quot;height: 14.25pt ; width: 77pt&quot;&gt;0x00000003&lt;/td&gt;&lt;/tr&gt;&lt;/tbody&gt;&lt;/table&gt;" style="shape=partialRectangle;html=1;whiteSpace=wrap;connectable=0;fillColor=none;top=0;left=0;bottom=0;right=0;overflow=hidden;" vertex="1" parent="KGYHmEIzNs8f1rvYr3dA-324">
          <mxGeometry width="142" height="30" as="geometry" />
        </mxCell>
        <mxCell id="KGYHmEIzNs8f1rvYr3dA-326" value="&lt;span&gt;0x00001002&lt;/span&gt;" style="shape=partialRectangle;html=1;whiteSpace=wrap;connectable=0;fillColor=none;top=0;left=0;bottom=0;right=0;align=center;spacingLeft=6;overflow=hidden;" vertex="1" parent="KGYHmEIzNs8f1rvYr3dA-324">
          <mxGeometry x="142" width="141" height="30" as="geometry" />
        </mxCell>
        <mxCell id="KGYHmEIzNs8f1rvYr3dA-327" style="shape=partialRectangle;html=1;whiteSpace=wrap;collapsible=0;dropTarget=0;pointerEvents=0;fillColor=none;top=0;left=0;bottom=0;right=0;points=[[0,0.5],[1,0.5]];portConstraint=eastwest;" vertex="1" parent="KGYHmEIzNs8f1rvYr3dA-247">
          <mxGeometry y="150" width="283" height="30" as="geometry" />
        </mxCell>
        <mxCell id="KGYHmEIzNs8f1rvYr3dA-328" style="shape=partialRectangle;html=1;whiteSpace=wrap;connectable=0;fillColor=none;top=0;left=0;bottom=0;right=0;overflow=hidden;" vertex="1" parent="KGYHmEIzNs8f1rvYr3dA-327">
          <mxGeometry width="142" height="30" as="geometry" />
        </mxCell>
        <mxCell id="KGYHmEIzNs8f1rvYr3dA-329" style="shape=partialRectangle;html=1;whiteSpace=wrap;connectable=0;fillColor=none;top=0;left=0;bottom=0;right=0;align=center;spacingLeft=6;overflow=hidden;" vertex="1" parent="KGYHmEIzNs8f1rvYr3dA-327">
          <mxGeometry x="142" width="141" height="30" as="geometry" />
        </mxCell>
        <mxCell id="KGYHmEIzNs8f1rvYr3dA-330" value="堆内存" style="shape=table;html=1;whiteSpace=wrap;startSize=30;container=1;collapsible=0;childLayout=tableLayout;fixedRows=1;rowLines=0;fontStyle=1;align=center;" vertex="1" parent="1">
          <mxGeometry x="913.75" y="1403" width="283" height="151" as="geometry" />
        </mxCell>
        <mxCell id="KGYHmEIzNs8f1rvYr3dA-331" value="" style="shape=partialRectangle;html=1;whiteSpace=wrap;collapsible=0;dropTarget=0;pointerEvents=0;fillColor=none;top=0;left=0;bottom=1;right=0;points=[[0,0.5],[1,0.5]];portConstraint=eastwest;" vertex="1" parent="KGYHmEIzNs8f1rvYr3dA-330">
          <mxGeometry y="30" width="283" height="30" as="geometry" />
        </mxCell>
        <mxCell id="KGYHmEIzNs8f1rvYr3dA-332" value="地址" style="shape=partialRectangle;html=1;whiteSpace=wrap;connectable=0;fillColor=none;top=0;left=0;bottom=0;right=0;overflow=hidden;" vertex="1" parent="KGYHmEIzNs8f1rvYr3dA-331">
          <mxGeometry width="142" height="30" as="geometry" />
        </mxCell>
        <mxCell id="KGYHmEIzNs8f1rvYr3dA-333" value="值" style="shape=partialRectangle;html=1;whiteSpace=wrap;connectable=0;fillColor=none;top=0;left=0;bottom=0;right=0;align=center;spacingLeft=6;overflow=hidden;" vertex="1" parent="KGYHmEIzNs8f1rvYr3dA-331">
          <mxGeometry x="142" width="141" height="30" as="geometry" />
        </mxCell>
        <mxCell id="KGYHmEIzNs8f1rvYr3dA-334" value="" style="shape=partialRectangle;html=1;whiteSpace=wrap;collapsible=0;dropTarget=0;pointerEvents=0;fillColor=none;top=0;left=0;bottom=0;right=0;points=[[0,0.5],[1,0.5]];portConstraint=eastwest;" vertex="1" parent="KGYHmEIzNs8f1rvYr3dA-330">
          <mxGeometry y="60" width="283" height="30" as="geometry" />
        </mxCell>
        <mxCell id="KGYHmEIzNs8f1rvYr3dA-335" value="0x00001001" style="shape=partialRectangle;html=1;whiteSpace=wrap;connectable=0;fillColor=none;top=0;left=0;bottom=0;right=0;overflow=hidden;" vertex="1" parent="KGYHmEIzNs8f1rvYr3dA-334">
          <mxGeometry width="142" height="30" as="geometry" />
        </mxCell>
        <mxCell id="KGYHmEIzNs8f1rvYr3dA-336" value="{ name: &quot;Nicholas&quot; }" style="shape=partialRectangle;html=1;whiteSpace=wrap;connectable=0;fillColor=none;top=0;left=0;bottom=0;right=0;align=center;spacingLeft=6;overflow=hidden;" vertex="1" parent="KGYHmEIzNs8f1rvYr3dA-334">
          <mxGeometry x="142" width="141" height="30" as="geometry" />
        </mxCell>
        <mxCell id="KGYHmEIzNs8f1rvYr3dA-337" value="" style="shape=partialRectangle;html=1;whiteSpace=wrap;collapsible=0;dropTarget=0;pointerEvents=0;fillColor=none;top=0;left=0;bottom=0;right=0;points=[[0,0.5],[1,0.5]];portConstraint=eastwest;" vertex="1" parent="KGYHmEIzNs8f1rvYr3dA-330">
          <mxGeometry y="90" width="283" height="30" as="geometry" />
        </mxCell>
        <mxCell id="KGYHmEIzNs8f1rvYr3dA-338" value="&lt;span&gt;0x00001002&lt;/span&gt;" style="shape=partialRectangle;html=1;whiteSpace=wrap;connectable=0;fillColor=none;top=0;left=0;bottom=0;right=0;overflow=hidden;" vertex="1" parent="KGYHmEIzNs8f1rvYr3dA-337">
          <mxGeometry width="142" height="30" as="geometry" />
        </mxCell>
        <mxCell id="KGYHmEIzNs8f1rvYr3dA-339" value="{ name: &quot;Greg&quot; }" style="shape=partialRectangle;html=1;whiteSpace=wrap;connectable=0;fillColor=none;top=0;left=0;bottom=0;right=0;align=center;spacingLeft=6;overflow=hidden;" vertex="1" parent="KGYHmEIzNs8f1rvYr3dA-337">
          <mxGeometry x="142" width="141" height="30" as="geometry" />
        </mxCell>
        <mxCell id="KGYHmEIzNs8f1rvYr3dA-340" style="shape=partialRectangle;html=1;whiteSpace=wrap;collapsible=0;dropTarget=0;pointerEvents=0;fillColor=none;top=0;left=0;bottom=0;right=0;points=[[0,0.5],[1,0.5]];portConstraint=eastwest;" vertex="1" parent="KGYHmEIzNs8f1rvYr3dA-330">
          <mxGeometry y="120" width="283" height="31" as="geometry" />
        </mxCell>
        <mxCell id="KGYHmEIzNs8f1rvYr3dA-341" value="" style="shape=partialRectangle;html=1;whiteSpace=wrap;connectable=0;fillColor=none;top=0;left=0;bottom=0;right=0;overflow=hidden;" vertex="1" parent="KGYHmEIzNs8f1rvYr3dA-340">
          <mxGeometry width="142" height="31" as="geometry" />
        </mxCell>
        <mxCell id="KGYHmEIzNs8f1rvYr3dA-342" value="" style="shape=partialRectangle;html=1;whiteSpace=wrap;connectable=0;fillColor=none;top=0;left=0;bottom=0;right=0;align=center;spacingLeft=6;overflow=hidden;" vertex="1" parent="KGYHmEIzNs8f1rvYr3dA-340">
          <mxGeometry x="142" width="141" height="31" as="geometry" />
        </mxCell>
        <mxCell id="KGYHmEIzNs8f1rvYr3dA-113" value="栈内存" style="shape=table;html=1;whiteSpace=wrap;startSize=30;container=1;collapsible=0;childLayout=tableLayout;fixedRows=1;rowLines=0;fontStyle=1;align=center;" vertex="1" parent="1">
          <mxGeometry x="586" y="1167" width="283" height="180" as="geometry" />
        </mxCell>
        <mxCell id="KGYHmEIzNs8f1rvYr3dA-114" value="" style="shape=partialRectangle;html=1;whiteSpace=wrap;collapsible=0;dropTarget=0;pointerEvents=0;fillColor=none;top=0;left=0;bottom=1;right=0;points=[[0,0.5],[1,0.5]];portConstraint=eastwest;" vertex="1" parent="KGYHmEIzNs8f1rvYr3dA-113">
          <mxGeometry y="30" width="283" height="30" as="geometry" />
        </mxCell>
        <mxCell id="KGYHmEIzNs8f1rvYr3dA-115" value="地址" style="shape=partialRectangle;html=1;whiteSpace=wrap;connectable=0;fillColor=none;top=0;left=0;bottom=0;right=0;overflow=hidden;" vertex="1" parent="KGYHmEIzNs8f1rvYr3dA-114">
          <mxGeometry width="142" height="30" as="geometry" />
        </mxCell>
        <mxCell id="KGYHmEIzNs8f1rvYr3dA-116" value="值" style="shape=partialRectangle;html=1;whiteSpace=wrap;connectable=0;fillColor=none;top=0;left=0;bottom=0;right=0;align=center;spacingLeft=6;overflow=hidden;" vertex="1" parent="KGYHmEIzNs8f1rvYr3dA-114">
          <mxGeometry x="142" width="141" height="30" as="geometry" />
        </mxCell>
        <mxCell id="KGYHmEIzNs8f1rvYr3dA-117" value="" style="shape=partialRectangle;html=1;whiteSpace=wrap;collapsible=0;dropTarget=0;pointerEvents=0;fillColor=none;top=0;left=0;bottom=0;right=0;points=[[0,0.5],[1,0.5]];portConstraint=eastwest;" vertex="1" parent="KGYHmEIzNs8f1rvYr3dA-113">
          <mxGeometry y="60" width="283" height="30" as="geometry" />
        </mxCell>
        <mxCell id="KGYHmEIzNs8f1rvYr3dA-118" value="&lt;table border=&quot;0&quot; cellpadding=&quot;0&quot; cellspacing=&quot;0&quot; width=&quot;103&quot; style=&quot;border-collapse: collapse ; width: 77pt&quot;&gt;&lt;tbody&gt;&lt;tr style=&quot;height: 14.25pt&quot;&gt;  &lt;td height=&quot;19&quot; width=&quot;103&quot; style=&quot;height: 14.25pt ; width: 77pt&quot;&gt;0x00000001&lt;/td&gt;&lt;/tr&gt;&lt;/tbody&gt;&lt;/table&gt;" style="shape=partialRectangle;html=1;whiteSpace=wrap;connectable=0;fillColor=none;top=0;left=0;bottom=0;right=0;overflow=hidden;" vertex="1" parent="KGYHmEIzNs8f1rvYr3dA-117">
          <mxGeometry width="142" height="30" as="geometry" />
        </mxCell>
        <mxCell id="KGYHmEIzNs8f1rvYr3dA-119" value="0x00001001" style="shape=partialRectangle;html=1;whiteSpace=wrap;connectable=0;fillColor=none;top=0;left=0;bottom=0;right=0;align=center;spacingLeft=6;overflow=hidden;" vertex="1" parent="KGYHmEIzNs8f1rvYr3dA-117">
          <mxGeometry x="142" width="141" height="30" as="geometry" />
        </mxCell>
        <mxCell id="KGYHmEIzNs8f1rvYr3dA-120" value="" style="shape=partialRectangle;html=1;whiteSpace=wrap;collapsible=0;dropTarget=0;pointerEvents=0;fillColor=none;top=0;left=0;bottom=0;right=0;points=[[0,0.5],[1,0.5]];portConstraint=eastwest;" vertex="1" parent="KGYHmEIzNs8f1rvYr3dA-113">
          <mxGeometry y="90" width="283" height="30" as="geometry" />
        </mxCell>
        <mxCell id="KGYHmEIzNs8f1rvYr3dA-121" value="&lt;table border=&quot;0&quot; cellpadding=&quot;0&quot; cellspacing=&quot;0&quot; width=&quot;103&quot; style=&quot;border-collapse: collapse ; width: 77pt&quot;&gt;&lt;tbody&gt;&lt;tr style=&quot;height: 14.25pt&quot;&gt;&lt;td height=&quot;19&quot; width=&quot;103&quot; style=&quot;height: 14.25pt ; width: 77pt&quot;&gt;0x00000002&lt;/td&gt;&lt;/tr&gt;&lt;/tbody&gt;&lt;/table&gt;" style="shape=partialRectangle;html=1;whiteSpace=wrap;connectable=0;fillColor=none;top=0;left=0;bottom=0;right=0;overflow=hidden;" vertex="1" parent="KGYHmEIzNs8f1rvYr3dA-120">
          <mxGeometry width="142" height="30" as="geometry" />
        </mxCell>
        <mxCell id="KGYHmEIzNs8f1rvYr3dA-122" value="&lt;span&gt;0x00001001&lt;/span&gt;" style="shape=partialRectangle;html=1;whiteSpace=wrap;connectable=0;fillColor=none;top=0;left=0;bottom=0;right=0;align=center;spacingLeft=6;overflow=hidden;" vertex="1" parent="KGYHmEIzNs8f1rvYr3dA-120">
          <mxGeometry x="142" width="141" height="30" as="geometry" />
        </mxCell>
        <mxCell id="KGYHmEIzNs8f1rvYr3dA-123" style="shape=partialRectangle;html=1;whiteSpace=wrap;collapsible=0;dropTarget=0;pointerEvents=0;fillColor=none;top=0;left=0;bottom=0;right=0;points=[[0,0.5],[1,0.5]];portConstraint=eastwest;" vertex="1" parent="KGYHmEIzNs8f1rvYr3dA-113">
          <mxGeometry y="120" width="283" height="30" as="geometry" />
        </mxCell>
        <mxCell id="KGYHmEIzNs8f1rvYr3dA-124" value="&lt;table border=&quot;0&quot; cellpadding=&quot;0&quot; cellspacing=&quot;0&quot; width=&quot;103&quot; style=&quot;border-collapse: collapse ; width: 77pt&quot;&gt;&lt;tbody&gt;&lt;tr style=&quot;height: 14.25pt&quot;&gt;&lt;td height=&quot;19&quot; width=&quot;103&quot; style=&quot;height: 14.25pt ; width: 77pt&quot;&gt;0x00000003&lt;/td&gt;&lt;/tr&gt;&lt;/tbody&gt;&lt;/table&gt;" style="shape=partialRectangle;html=1;whiteSpace=wrap;connectable=0;fillColor=none;top=0;left=0;bottom=0;right=0;overflow=hidden;" vertex="1" parent="KGYHmEIzNs8f1rvYr3dA-123">
          <mxGeometry width="142" height="30" as="geometry" />
        </mxCell>
        <mxCell id="KGYHmEIzNs8f1rvYr3dA-125" value="&lt;span&gt;0x00001002&lt;/span&gt;" style="shape=partialRectangle;html=1;whiteSpace=wrap;connectable=0;fillColor=none;top=0;left=0;bottom=0;right=0;align=center;spacingLeft=6;overflow=hidden;" vertex="1" parent="KGYHmEIzNs8f1rvYr3dA-123">
          <mxGeometry x="142" width="141" height="30" as="geometry" />
        </mxCell>
        <mxCell id="KGYHmEIzNs8f1rvYr3dA-190" style="shape=partialRectangle;html=1;whiteSpace=wrap;collapsible=0;dropTarget=0;pointerEvents=0;fillColor=none;top=0;left=0;bottom=0;right=0;points=[[0,0.5],[1,0.5]];portConstraint=eastwest;" vertex="1" parent="KGYHmEIzNs8f1rvYr3dA-113">
          <mxGeometry y="150" width="283" height="30" as="geometry" />
        </mxCell>
        <mxCell id="KGYHmEIzNs8f1rvYr3dA-191" style="shape=partialRectangle;html=1;whiteSpace=wrap;connectable=0;fillColor=none;top=0;left=0;bottom=0;right=0;overflow=hidden;" vertex="1" parent="KGYHmEIzNs8f1rvYr3dA-190">
          <mxGeometry width="142" height="30" as="geometry" />
        </mxCell>
        <mxCell id="KGYHmEIzNs8f1rvYr3dA-192" style="shape=partialRectangle;html=1;whiteSpace=wrap;connectable=0;fillColor=none;top=0;left=0;bottom=0;right=0;align=center;spacingLeft=6;overflow=hidden;" vertex="1" parent="KGYHmEIzNs8f1rvYr3dA-190">
          <mxGeometry x="142" width="141" height="30" as="geometry" />
        </mxCell>
        <mxCell id="KGYHmEIzNs8f1rvYr3dA-126" value="堆内存" style="shape=table;html=1;whiteSpace=wrap;startSize=30;container=1;collapsible=0;childLayout=tableLayout;fixedRows=1;rowLines=0;fontStyle=1;align=center;" vertex="1" parent="1">
          <mxGeometry x="927.75" y="1169" width="283" height="151" as="geometry" />
        </mxCell>
        <mxCell id="KGYHmEIzNs8f1rvYr3dA-127" value="" style="shape=partialRectangle;html=1;whiteSpace=wrap;collapsible=0;dropTarget=0;pointerEvents=0;fillColor=none;top=0;left=0;bottom=1;right=0;points=[[0,0.5],[1,0.5]];portConstraint=eastwest;" vertex="1" parent="KGYHmEIzNs8f1rvYr3dA-126">
          <mxGeometry y="30" width="283" height="30" as="geometry" />
        </mxCell>
        <mxCell id="KGYHmEIzNs8f1rvYr3dA-128" value="地址" style="shape=partialRectangle;html=1;whiteSpace=wrap;connectable=0;fillColor=none;top=0;left=0;bottom=0;right=0;overflow=hidden;" vertex="1" parent="KGYHmEIzNs8f1rvYr3dA-127">
          <mxGeometry width="142" height="30" as="geometry" />
        </mxCell>
        <mxCell id="KGYHmEIzNs8f1rvYr3dA-129" value="值" style="shape=partialRectangle;html=1;whiteSpace=wrap;connectable=0;fillColor=none;top=0;left=0;bottom=0;right=0;align=center;spacingLeft=6;overflow=hidden;" vertex="1" parent="KGYHmEIzNs8f1rvYr3dA-127">
          <mxGeometry x="142" width="141" height="30" as="geometry" />
        </mxCell>
        <mxCell id="KGYHmEIzNs8f1rvYr3dA-130" value="" style="shape=partialRectangle;html=1;whiteSpace=wrap;collapsible=0;dropTarget=0;pointerEvents=0;fillColor=none;top=0;left=0;bottom=0;right=0;points=[[0,0.5],[1,0.5]];portConstraint=eastwest;" vertex="1" parent="KGYHmEIzNs8f1rvYr3dA-126">
          <mxGeometry y="60" width="283" height="30" as="geometry" />
        </mxCell>
        <mxCell id="KGYHmEIzNs8f1rvYr3dA-131" value="0x00001001" style="shape=partialRectangle;html=1;whiteSpace=wrap;connectable=0;fillColor=none;top=0;left=0;bottom=0;right=0;overflow=hidden;" vertex="1" parent="KGYHmEIzNs8f1rvYr3dA-130">
          <mxGeometry width="142" height="30" as="geometry" />
        </mxCell>
        <mxCell id="KGYHmEIzNs8f1rvYr3dA-133" value="{ name: &quot;Nicholas&quot; }" style="shape=partialRectangle;html=1;whiteSpace=wrap;connectable=0;fillColor=none;top=0;left=0;bottom=0;right=0;align=center;spacingLeft=6;overflow=hidden;" vertex="1" parent="KGYHmEIzNs8f1rvYr3dA-130">
          <mxGeometry x="142" width="141" height="30" as="geometry" />
        </mxCell>
        <mxCell id="KGYHmEIzNs8f1rvYr3dA-134" value="" style="shape=partialRectangle;html=1;whiteSpace=wrap;collapsible=0;dropTarget=0;pointerEvents=0;fillColor=none;top=0;left=0;bottom=0;right=0;points=[[0,0.5],[1,0.5]];portConstraint=eastwest;" vertex="1" parent="KGYHmEIzNs8f1rvYr3dA-126">
          <mxGeometry y="90" width="283" height="30" as="geometry" />
        </mxCell>
        <mxCell id="KGYHmEIzNs8f1rvYr3dA-150" value="&lt;span&gt;0x00001002&lt;/span&gt;" style="shape=partialRectangle;html=1;whiteSpace=wrap;connectable=0;fillColor=none;top=0;left=0;bottom=0;right=0;overflow=hidden;" vertex="1" parent="KGYHmEIzNs8f1rvYr3dA-134">
          <mxGeometry width="142" height="30" as="geometry" />
        </mxCell>
        <mxCell id="KGYHmEIzNs8f1rvYr3dA-151" value="&lt;span&gt;{ }&lt;/span&gt;" style="shape=partialRectangle;html=1;whiteSpace=wrap;connectable=0;fillColor=none;top=0;left=0;bottom=0;right=0;align=center;spacingLeft=6;overflow=hidden;" vertex="1" parent="KGYHmEIzNs8f1rvYr3dA-134">
          <mxGeometry x="142" width="141" height="30" as="geometry" />
        </mxCell>
        <mxCell id="KGYHmEIzNs8f1rvYr3dA-152" style="shape=partialRectangle;html=1;whiteSpace=wrap;collapsible=0;dropTarget=0;pointerEvents=0;fillColor=none;top=0;left=0;bottom=0;right=0;points=[[0,0.5],[1,0.5]];portConstraint=eastwest;" vertex="1" parent="KGYHmEIzNs8f1rvYr3dA-126">
          <mxGeometry y="120" width="283" height="31" as="geometry" />
        </mxCell>
        <mxCell id="KGYHmEIzNs8f1rvYr3dA-188" value="" style="shape=partialRectangle;html=1;whiteSpace=wrap;connectable=0;fillColor=none;top=0;left=0;bottom=0;right=0;overflow=hidden;" vertex="1" parent="KGYHmEIzNs8f1rvYr3dA-152">
          <mxGeometry width="142" height="31" as="geometry" />
        </mxCell>
        <mxCell id="KGYHmEIzNs8f1rvYr3dA-189" value="" style="shape=partialRectangle;html=1;whiteSpace=wrap;connectable=0;fillColor=none;top=0;left=0;bottom=0;right=0;align=center;spacingLeft=6;overflow=hidden;" vertex="1" parent="KGYHmEIzNs8f1rvYr3dA-152">
          <mxGeometry x="142" width="141" height="31" as="geometry" />
        </mxCell>
      </root>
    </mxGraphModel>
  </diagram>
</mxfile>
